G04 Layer_Color=32896*
%FSLAX24Y24*%
%MOIN*%
G70*
G01*
G75*
%ADD36C,0.0295*%
%ADD39C,0.0236*%
%ADD80C,0.0080*%
%ADD81C,0.0050*%
%ADD82C,0.0059*%
%ADD83C,0.0100*%
%ADD84C,0.0060*%
%ADD193R,0.0300X0.0340*%
G36*
X18107Y23443D02*
X18036D01*
Y24155D01*
X18107D01*
Y23443D01*
D02*
G37*
G36*
X17544Y24085D02*
X17433D01*
Y23443D01*
X17362D01*
Y24155D01*
X17503D01*
X17544Y24085D01*
D02*
G37*
G36*
X19539Y23443D02*
X19134D01*
Y23513D01*
X19467D01*
Y23792D01*
X19134D01*
Y23862D01*
X19467D01*
Y24085D01*
X19130D01*
Y24155D01*
X19539D01*
Y23443D01*
D02*
G37*
G36*
X20810D02*
X20732D01*
X20622Y23676D01*
X20313D01*
X20202Y23443D01*
X20125D01*
X20457Y24155D01*
X20474D01*
X20810Y23443D01*
D02*
G37*
G36*
X20042Y24085D02*
X19775D01*
X20074Y23443D01*
X19681D01*
Y23513D01*
X19965D01*
X19667Y24155D01*
X20042D01*
Y24085D01*
D02*
G37*
G36*
X14433Y24087D02*
X14093D01*
X14422Y23454D01*
X14363Y23425D01*
X13982Y24155D01*
X14433D01*
Y24087D01*
D02*
G37*
G36*
X16551Y23346D02*
X16477D01*
X16182Y24173D01*
X16256D01*
X16551Y23346D01*
D02*
G37*
G36*
X15346Y24172D02*
X15358Y24171D01*
X15382Y24166D01*
X15403Y24160D01*
X15421Y24153D01*
X15429Y24149D01*
X15436Y24146D01*
X15443Y24141D01*
X15448Y24139D01*
X15452Y24137D01*
X15455Y24134D01*
X15457Y24133D01*
X15458Y24132D01*
X15467Y24125D01*
X15477Y24116D01*
X15494Y24098D01*
X15508Y24078D01*
X15521Y24059D01*
X15531Y24042D01*
X15534Y24035D01*
X15537Y24028D01*
X15540Y24023D01*
X15541Y24019D01*
X15543Y24017D01*
Y24016D01*
X15548Y24001D01*
X15553Y23985D01*
X15557Y23968D01*
X15560Y23950D01*
X15565Y23914D01*
X15567Y23895D01*
X15568Y23878D01*
X15570Y23862D01*
X15571Y23846D01*
X15572Y23833D01*
Y23821D01*
X15572Y23812D01*
Y23804D01*
Y23800D01*
Y23799D01*
Y23798D01*
Y23772D01*
X15571Y23749D01*
X15570Y23726D01*
X15567Y23705D01*
X15565Y23686D01*
X15562Y23668D01*
X15560Y23652D01*
X15557Y23637D01*
X15554Y23624D01*
X15552Y23613D01*
X15549Y23603D01*
X15547Y23595D01*
X15544Y23589D01*
X15544Y23584D01*
X15542Y23581D01*
Y23581D01*
X15536Y23567D01*
X15530Y23554D01*
X15522Y23541D01*
X15516Y23530D01*
X15508Y23519D01*
X15501Y23509D01*
X15494Y23500D01*
X15488Y23493D01*
X15481Y23486D01*
X15476Y23480D01*
X15470Y23475D01*
X15466Y23471D01*
X15462Y23467D01*
X15459Y23465D01*
X15458Y23464D01*
X15457Y23463D01*
X15446Y23457D01*
X15435Y23451D01*
X15414Y23441D01*
X15394Y23435D01*
X15375Y23430D01*
X15366Y23428D01*
X15358Y23427D01*
X15351Y23426D01*
X15345D01*
X15340Y23425D01*
X15334D01*
X15321Y23426D01*
X15308Y23426D01*
X15285Y23431D01*
X15263Y23438D01*
X15244Y23445D01*
X15236Y23449D01*
X15229Y23453D01*
X15223Y23456D01*
X15217Y23458D01*
X15213Y23462D01*
X15210Y23463D01*
X15208Y23464D01*
X15207Y23465D01*
X15197Y23473D01*
X15188Y23481D01*
X15170Y23501D01*
X15154Y23521D01*
X15142Y23540D01*
X15132Y23558D01*
X15128Y23565D01*
X15125Y23572D01*
X15122Y23577D01*
X15121Y23581D01*
X15119Y23584D01*
Y23585D01*
X15113Y23600D01*
X15108Y23617D01*
X15100Y23652D01*
X15094Y23687D01*
X15092Y23704D01*
X15090Y23721D01*
X15089Y23737D01*
X15088Y23751D01*
X15087Y23764D01*
Y23776D01*
X15086Y23785D01*
Y23792D01*
Y23796D01*
Y23798D01*
Y23822D01*
X15088Y23845D01*
X15089Y23868D01*
X15091Y23888D01*
X15093Y23907D01*
X15097Y23925D01*
X15099Y23941D01*
X15102Y23955D01*
X15106Y23968D01*
X15108Y23980D01*
X15111Y23990D01*
X15114Y23997D01*
X15116Y24004D01*
X15117Y24009D01*
X15119Y24011D01*
Y24012D01*
X15125Y24027D01*
X15132Y24040D01*
X15139Y24053D01*
X15147Y24064D01*
X15154Y24076D01*
X15161Y24086D01*
X15169Y24095D01*
X15175Y24102D01*
X15183Y24109D01*
X15189Y24115D01*
X15194Y24121D01*
X15199Y24125D01*
X15202Y24128D01*
X15206Y24131D01*
X15207Y24132D01*
X15208Y24132D01*
X15219Y24140D01*
X15230Y24146D01*
X15240Y24151D01*
X15252Y24155D01*
X15272Y24163D01*
X15292Y24168D01*
X15301Y24169D01*
X15308Y24170D01*
X15316Y24172D01*
X15322D01*
X15327Y24173D01*
X15334D01*
X15346Y24172D01*
D02*
G37*
G36*
X16995Y24085D02*
X16883D01*
Y23443D01*
X16812D01*
Y24155D01*
X16953D01*
X16995Y24085D01*
D02*
G37*
G36*
X14914D02*
X14802D01*
Y23443D01*
X14731D01*
Y24155D01*
X14872D01*
X14914Y24085D01*
D02*
G37*
G36*
X22341Y23443D02*
X22267D01*
Y23981D01*
X21797Y23443D01*
X21781D01*
Y24155D01*
X21852D01*
Y23611D01*
X22326Y24155D01*
X22341D01*
Y23443D01*
D02*
G37*
G36*
X19040D02*
X18972D01*
X18902Y23956D01*
X18647Y23443D01*
X18629D01*
X18377Y23952D01*
X18305Y23443D01*
X18236D01*
X18339Y24155D01*
X18350D01*
X18637Y23571D01*
X18926Y24155D01*
X18939D01*
X19040Y23443D01*
D02*
G37*
G36*
X15887Y24172D02*
X15904Y24169D01*
X15922Y24166D01*
X15937Y24162D01*
X15952Y24157D01*
X15966Y24151D01*
X15978Y24145D01*
X15990Y24139D01*
X16000Y24132D01*
X16009Y24126D01*
X16018Y24120D01*
X16024Y24115D01*
X16030Y24111D01*
X16033Y24108D01*
X16036Y24105D01*
X16036Y24105D01*
X16048Y24091D01*
X16059Y24077D01*
X16068Y24064D01*
X16076Y24050D01*
X16082Y24035D01*
X16088Y24021D01*
X16093Y24007D01*
X16096Y23993D01*
X16100Y23981D01*
X16102Y23969D01*
X16104Y23959D01*
X16105Y23950D01*
X16105Y23942D01*
X16106Y23937D01*
Y23933D01*
Y23932D01*
X16038D01*
X16036Y23947D01*
X16034Y23961D01*
X16032Y23974D01*
X16027Y23986D01*
X16023Y23998D01*
X16019Y24009D01*
X16015Y24018D01*
X16010Y24027D01*
X16006Y24034D01*
X16002Y24041D01*
X15998Y24046D01*
X15995Y24051D01*
X15991Y24055D01*
X15989Y24057D01*
X15988Y24059D01*
X15987Y24059D01*
X15978Y24068D01*
X15969Y24075D01*
X15959Y24081D01*
X15950Y24086D01*
X15931Y24094D01*
X15913Y24100D01*
X15897Y24103D01*
X15890Y24104D01*
X15885Y24105D01*
X15880Y24105D01*
X15873D01*
X15861Y24105D01*
X15850Y24104D01*
X15829Y24099D01*
X15810Y24091D01*
X15794Y24084D01*
X15787Y24080D01*
X15781Y24076D01*
X15776Y24072D01*
X15772Y24068D01*
X15768Y24066D01*
X15765Y24064D01*
X15764Y24063D01*
X15763Y24062D01*
X15755Y24054D01*
X15749Y24045D01*
X15742Y24037D01*
X15737Y24027D01*
X15729Y24010D01*
X15724Y23994D01*
X15721Y23979D01*
X15720Y23973D01*
X15719Y23968D01*
X15718Y23964D01*
Y23960D01*
Y23959D01*
Y23958D01*
X15719Y23941D01*
X15722Y23923D01*
X15726Y23909D01*
X15731Y23895D01*
X15735Y23884D01*
X15740Y23875D01*
X15741Y23872D01*
X15743Y23869D01*
X15744Y23868D01*
Y23868D01*
X15749Y23859D01*
X15755Y23850D01*
X15763Y23840D01*
X15771Y23829D01*
X15789Y23807D01*
X15807Y23786D01*
X15815Y23776D01*
X15823Y23766D01*
X15831Y23758D01*
X15838Y23750D01*
X15843Y23744D01*
X15848Y23740D01*
X15850Y23736D01*
X15851Y23736D01*
X16123Y23443D01*
X15640D01*
Y23511D01*
X15969D01*
X15791Y23702D01*
X15776Y23718D01*
X15763Y23734D01*
X15749Y23749D01*
X15739Y23763D01*
X15728Y23775D01*
X15719Y23787D01*
X15711Y23798D01*
X15704Y23808D01*
X15698Y23816D01*
X15692Y23824D01*
X15688Y23831D01*
X15685Y23836D01*
X15682Y23840D01*
X15681Y23843D01*
X15679Y23845D01*
Y23845D01*
X15669Y23866D01*
X15662Y23886D01*
X15657Y23905D01*
X15653Y23923D01*
X15652Y23930D01*
X15651Y23937D01*
X15650Y23944D01*
Y23949D01*
X15649Y23954D01*
Y23957D01*
Y23959D01*
Y23959D01*
X15650Y23975D01*
X15652Y23991D01*
X15655Y24005D01*
X15659Y24019D01*
X15663Y24032D01*
X15669Y24045D01*
X15674Y24056D01*
X15680Y24066D01*
X15685Y24076D01*
X15691Y24084D01*
X15697Y24091D01*
X15701Y24097D01*
X15705Y24102D01*
X15708Y24106D01*
X15710Y24108D01*
X15711Y24109D01*
X15722Y24120D01*
X15735Y24130D01*
X15748Y24138D01*
X15761Y24146D01*
X15775Y24152D01*
X15788Y24157D01*
X15800Y24161D01*
X15813Y24164D01*
X15824Y24167D01*
X15835Y24169D01*
X15845Y24171D01*
X15853Y24172D01*
X15859Y24173D01*
X15869D01*
X15887Y24172D01*
D02*
G37*
G36*
X21333Y23443D02*
X21260D01*
Y23774D01*
X20949Y23443D01*
X20854D01*
X21222Y23836D01*
X20880Y24155D01*
X20975D01*
X21260Y23887D01*
Y24155D01*
X21333D01*
Y23443D01*
D02*
G37*
G36*
X23439D02*
X23244D01*
X23225Y23444D01*
X23207Y23445D01*
X23189Y23449D01*
X23174Y23452D01*
X23158Y23457D01*
X23144Y23462D01*
X23132Y23467D01*
X23120Y23472D01*
X23111Y23478D01*
X23102Y23483D01*
X23094Y23488D01*
X23088Y23493D01*
X23083Y23496D01*
X23079Y23499D01*
X23077Y23501D01*
X23076Y23502D01*
X23065Y23513D01*
X23056Y23525D01*
X23047Y23537D01*
X23039Y23549D01*
X23033Y23562D01*
X23029Y23574D01*
X23024Y23586D01*
X23021Y23597D01*
X23018Y23607D01*
X23016Y23617D01*
X23015Y23625D01*
X23014Y23633D01*
X23013Y23639D01*
Y23643D01*
Y23646D01*
Y23647D01*
X23014Y23663D01*
X23015Y23677D01*
X23019Y23690D01*
X23021Y23702D01*
X23024Y23711D01*
X23028Y23718D01*
X23029Y23723D01*
X23030Y23725D01*
X23037Y23738D01*
X23044Y23749D01*
X23052Y23760D01*
X23060Y23769D01*
X23066Y23777D01*
X23072Y23782D01*
X23075Y23786D01*
X23077Y23786D01*
X23089Y23795D01*
X23102Y23804D01*
X23117Y23812D01*
X23130Y23818D01*
X23143Y23823D01*
X23148Y23826D01*
X23153Y23827D01*
X23156Y23829D01*
X23160Y23830D01*
X23161Y23831D01*
X23162D01*
X23147Y23841D01*
X23133Y23850D01*
X23121Y23861D01*
X23111Y23871D01*
X23104Y23880D01*
X23098Y23886D01*
X23095Y23891D01*
X23094Y23892D01*
Y23893D01*
X23086Y23908D01*
X23080Y23923D01*
X23076Y23938D01*
X23074Y23951D01*
X23071Y23963D01*
X23070Y23972D01*
Y23975D01*
Y23977D01*
Y23979D01*
Y23980D01*
X23071Y23999D01*
X23075Y24016D01*
X23079Y24032D01*
X23084Y24046D01*
X23089Y24057D01*
X23093Y24065D01*
X23095Y24068D01*
X23097Y24071D01*
X23097Y24072D01*
Y24073D01*
X23108Y24087D01*
X23120Y24100D01*
X23132Y24110D01*
X23143Y24119D01*
X23154Y24126D01*
X23162Y24130D01*
X23166Y24132D01*
X23167Y24133D01*
X23169Y24134D01*
X23170D01*
X23179Y24137D01*
X23188Y24141D01*
X23209Y24146D01*
X23230Y24150D01*
X23252Y24152D01*
X23261Y24153D01*
X23270Y24154D01*
X23278D01*
X23285Y24155D01*
X23439D01*
Y23443D01*
D02*
G37*
G36*
X22872D02*
X22467D01*
Y23513D01*
X22801D01*
Y23792D01*
X22467D01*
Y23862D01*
X22801D01*
Y24085D01*
X22464D01*
Y24155D01*
X22872D01*
Y23443D01*
D02*
G37*
%LPC*%
G36*
X20466Y24005D02*
X20345Y23745D01*
X20588D01*
X20466Y24005D01*
D02*
G37*
G36*
X15336Y24105D02*
X15331D01*
X15314Y24104D01*
X15298Y24100D01*
X15283Y24096D01*
X15270Y24090D01*
X15258Y24083D01*
X15250Y24078D01*
X15247Y24077D01*
X15244Y24075D01*
X15244Y24073D01*
X15243D01*
X15234Y24067D01*
X15228Y24060D01*
X15214Y24044D01*
X15202Y24027D01*
X15193Y24011D01*
X15186Y23996D01*
X15183Y23990D01*
X15180Y23984D01*
X15179Y23979D01*
X15177Y23976D01*
X15176Y23973D01*
Y23973D01*
X15172Y23959D01*
X15168Y23945D01*
X15162Y23917D01*
X15158Y23887D01*
X15156Y23859D01*
X15154Y23846D01*
X15153Y23835D01*
Y23824D01*
X15152Y23815D01*
Y23808D01*
Y23802D01*
Y23799D01*
Y23797D01*
Y23777D01*
X15153Y23759D01*
X15155Y23740D01*
X15157Y23723D01*
X15159Y23708D01*
X15161Y23692D01*
X15163Y23678D01*
X15166Y23666D01*
X15169Y23654D01*
X15171Y23644D01*
X15173Y23636D01*
X15175Y23628D01*
X15177Y23622D01*
X15179Y23617D01*
X15180Y23615D01*
Y23614D01*
X15189Y23592D01*
X15198Y23573D01*
X15209Y23558D01*
X15219Y23544D01*
X15228Y23534D01*
X15236Y23526D01*
X15241Y23522D01*
X15242Y23521D01*
X15243D01*
X15258Y23510D01*
X15274Y23503D01*
X15289Y23497D01*
X15303Y23494D01*
X15314Y23491D01*
X15323Y23490D01*
X15326Y23490D01*
X15331D01*
X15348Y23491D01*
X15365Y23494D01*
X15380Y23499D01*
X15394Y23505D01*
X15405Y23511D01*
X15413Y23516D01*
X15417Y23518D01*
X15419Y23519D01*
X15420Y23521D01*
X15421D01*
X15435Y23534D01*
X15448Y23549D01*
X15459Y23564D01*
X15468Y23580D01*
X15475Y23593D01*
X15477Y23599D01*
X15480Y23604D01*
X15481Y23608D01*
X15483Y23612D01*
X15484Y23613D01*
Y23614D01*
X15488Y23626D01*
X15491Y23640D01*
X15494Y23654D01*
X15496Y23669D01*
X15500Y23699D01*
X15503Y23729D01*
X15503Y23743D01*
X15504Y23756D01*
Y23768D01*
X15505Y23777D01*
Y23786D01*
Y23792D01*
Y23795D01*
Y23797D01*
Y23819D01*
X15504Y23840D01*
X15503Y23859D01*
X15502Y23877D01*
X15500Y23893D01*
X15499Y23909D01*
X15496Y23922D01*
X15494Y23934D01*
X15493Y23945D01*
X15490Y23954D01*
X15489Y23962D01*
X15487Y23968D01*
X15485Y23973D01*
X15485Y23977D01*
X15484Y23979D01*
Y23980D01*
X15475Y24001D01*
X15465Y24020D01*
X15454Y24037D01*
X15444Y24050D01*
X15435Y24060D01*
X15427Y24068D01*
X15422Y24072D01*
X15421Y24073D01*
X15421D01*
X15405Y24084D01*
X15389Y24092D01*
X15374Y24098D01*
X15360Y24101D01*
X15348Y24104D01*
X15339Y24105D01*
X15336Y24105D01*
D02*
G37*
G36*
X23370Y24085D02*
X23274D01*
X23261Y24084D01*
X23250Y24082D01*
X23239Y24081D01*
X23229Y24078D01*
X23220Y24076D01*
X23212Y24073D01*
X23205Y24071D01*
X23199Y24068D01*
X23193Y24066D01*
X23188Y24064D01*
X23185Y24061D01*
X23182Y24059D01*
X23180Y24058D01*
X23179Y24057D01*
X23167Y24046D01*
X23159Y24033D01*
X23152Y24020D01*
X23148Y24008D01*
X23146Y23997D01*
X23145Y23988D01*
X23144Y23985D01*
Y23982D01*
Y23981D01*
Y23980D01*
X23145Y23967D01*
X23147Y23955D01*
X23151Y23943D01*
X23154Y23933D01*
X23158Y23925D01*
X23161Y23919D01*
X23164Y23915D01*
X23165Y23914D01*
X23173Y23903D01*
X23182Y23895D01*
X23191Y23886D01*
X23200Y23881D01*
X23208Y23876D01*
X23215Y23872D01*
X23219Y23871D01*
X23220Y23870D01*
X23220D01*
X23227Y23868D01*
X23235Y23866D01*
X23252Y23863D01*
X23270Y23860D01*
X23288Y23859D01*
X23304Y23858D01*
X23311D01*
X23317Y23857D01*
X23370D01*
Y24085D01*
D02*
G37*
G36*
Y23786D02*
X23298D01*
X23284Y23785D01*
X23271Y23784D01*
X23261Y23783D01*
X23250D01*
X23241Y23782D01*
X23233Y23781D01*
X23225Y23781D01*
X23220Y23780D01*
X23215Y23779D01*
X23211Y23778D01*
X23207Y23777D01*
X23205D01*
X23203Y23777D01*
X23184Y23771D01*
X23167Y23763D01*
X23152Y23755D01*
X23140Y23748D01*
X23130Y23740D01*
X23124Y23734D01*
X23120Y23730D01*
X23118Y23729D01*
Y23728D01*
X23107Y23714D01*
X23100Y23700D01*
X23094Y23686D01*
X23091Y23673D01*
X23088Y23663D01*
X23088Y23654D01*
X23087Y23650D01*
Y23648D01*
Y23646D01*
Y23645D01*
X23088Y23631D01*
X23090Y23618D01*
X23094Y23607D01*
X23097Y23596D01*
X23102Y23587D01*
X23106Y23581D01*
X23108Y23576D01*
X23109Y23575D01*
X23118Y23563D01*
X23128Y23554D01*
X23138Y23546D01*
X23147Y23539D01*
X23155Y23534D01*
X23162Y23531D01*
X23166Y23528D01*
X23167Y23527D01*
X23168D01*
X23175Y23525D01*
X23184Y23522D01*
X23201Y23519D01*
X23220Y23516D01*
X23238Y23514D01*
X23256Y23513D01*
X23263D01*
X23269Y23513D01*
X23370D01*
Y23786D01*
D02*
G37*
%LPD*%
D36*
X38976Y29528D02*
X51181D01*
Y37402D01*
X38976D02*
X51181D01*
X38976Y29528D02*
Y37402D01*
D39*
X38484Y30906D02*
X36516D01*
X37500D01*
Y32217D01*
X38484D01*
X36516D01*
X38484Y33857D02*
Y33201D01*
X38156Y32873D01*
X36844D01*
X36516Y33201D01*
Y33857D01*
X36844Y34185D01*
X38156D01*
X38484Y33857D01*
Y34841D02*
Y36153D01*
Y35497D01*
X36516D01*
D80*
X27249Y19882D02*
G03*
X27349Y19981I0J100D01*
G01*
Y21082D02*
G03*
X27249Y21181I-100J0D01*
G01*
X26649D02*
G03*
X26549Y21082I0J-100D01*
G01*
Y19981D02*
G03*
X26649Y19882I100J0D01*
G01*
X26549Y19981D02*
Y21082D01*
X26649Y21181D02*
X27249D01*
X26649Y19882D02*
X27249D01*
X27349Y19981D02*
Y21082D01*
X31294Y22302D02*
X31885D01*
X32672Y21357D02*
X33106D01*
X33263Y21515D01*
Y22145D01*
X33106Y22302D02*
X33263Y22145D01*
X32672Y22302D02*
X33106D01*
X31294Y21357D02*
X31885D01*
X31294D02*
Y22302D01*
X2987Y26815D02*
Y27524D01*
X3479Y26815D02*
Y27524D01*
X2987Y26473D02*
X3479D01*
X4715Y33998D02*
X5306D01*
X6093Y33053D02*
X6526D01*
X6684Y33211D01*
Y33841D01*
X6526Y33998D02*
X6684Y33841D01*
X6093Y33998D02*
X6526D01*
X4715Y33053D02*
X5306D01*
X4715D02*
Y33998D01*
X4833Y31242D02*
X5424D01*
X6211Y30297D02*
X6644D01*
X6802Y30455D01*
Y31085D01*
X6644Y31242D02*
X6802Y31085D01*
X6211Y31242D02*
X6644D01*
X4833Y30297D02*
X5424D01*
X4833D02*
Y31242D01*
X35965Y45207D02*
X36673D01*
X35965Y45699D02*
X36673D01*
X37016Y45207D02*
Y45699D01*
X35984Y44813D02*
X36693D01*
X35984Y44321D02*
X36693D01*
X35642D02*
Y44813D01*
X46482Y45718D02*
X48842Y45718D01*
Y48298D01*
X46482Y48298D02*
X48842Y48298D01*
X27810Y13818D02*
X28401D01*
X26590Y14763D02*
X27023D01*
X26432Y14605D02*
X26590Y14763D01*
X26432Y13975D02*
Y14605D01*
Y13975D02*
X26590Y13818D01*
X27023D01*
X27810Y14763D02*
X28401D01*
Y13818D02*
Y14763D01*
X30891Y12656D02*
Y13365D01*
X30399Y12656D02*
Y13365D01*
Y13708D02*
X30891D01*
X33184Y14428D02*
Y15019D01*
X32239Y13207D02*
Y13641D01*
Y13207D02*
X32397Y13050D01*
X33027D01*
X33184Y13207D01*
Y13641D01*
X32239Y14428D02*
Y15019D01*
X33184D01*
X32220Y17125D02*
Y17715D01*
X33165Y18503D02*
Y18936D01*
X33007Y19093D02*
X33165Y18936D01*
X32377Y19093D02*
X33007D01*
X32220Y18936D02*
X32377Y19093D01*
X32220Y18503D02*
Y18936D01*
X33165Y17125D02*
Y17715D01*
X32220Y17125D02*
X33165D01*
X30113Y20668D02*
X30704D01*
X28893Y21613D02*
X29326D01*
X28735Y21456D02*
X28893Y21613D01*
X28735Y20826D02*
Y21456D01*
Y20826D02*
X28893Y20668D01*
X29326D01*
X30113Y21613D02*
X30704D01*
Y20668D02*
Y21613D01*
D81*
X33676Y27869D02*
G03*
X33747Y27869I35J35D01*
G01*
X33676Y27869D02*
G03*
X33605Y27798I-35J-35D01*
G01*
X33535Y27728D02*
G03*
X33605Y27798I35J35D01*
G01*
X33535Y27728D02*
G03*
X33464Y27657I-35J-35D01*
G01*
X33464Y27586D02*
G03*
X33464Y27657I-35J35D01*
G01*
X8899Y43065D02*
X9999D01*
X8899Y42565D02*
Y43065D01*
Y42565D02*
X9999D01*
Y43065D01*
X9449Y42565D02*
Y42667D01*
X9547Y42707D01*
X9379Y42765D02*
X9547Y42707D01*
X9379Y42765D02*
X9549Y42825D01*
X9379Y42895D02*
X9549Y42825D01*
X9379Y42895D02*
X9549Y42945D01*
X9449Y43005D02*
X9549Y42945D01*
X9449Y43005D02*
Y43065D01*
X7619D02*
X8719D01*
X7619Y42565D02*
Y43065D01*
Y42565D02*
X8719D01*
Y43065D01*
X8169Y42565D02*
Y42667D01*
X8268Y42707D01*
X8099Y42765D02*
X8268Y42707D01*
X8099Y42765D02*
X8269Y42825D01*
X8099Y42895D02*
X8269Y42825D01*
X8099Y42895D02*
X8269Y42945D01*
X8169Y43005D02*
X8269Y42945D01*
X8169Y43005D02*
Y43065D01*
X17770Y46714D02*
Y47814D01*
X17270D02*
X17770D01*
X17270Y46714D02*
Y47814D01*
Y46714D02*
X17770D01*
X17270Y47264D02*
X17372D01*
X17411Y47165D01*
X17470Y47334D01*
X17530Y47164D01*
X17600Y47334D01*
X17650Y47164D01*
X17710Y47264D01*
X17770D01*
X18557Y46714D02*
Y47814D01*
X18057D02*
X18557D01*
X18057Y46714D02*
Y47814D01*
Y46714D02*
X18557D01*
X18057Y47264D02*
X18159D01*
X18199Y47165D01*
X18257Y47334D01*
X18317Y47164D01*
X18387Y47334D01*
X18437Y47164D01*
X18497Y47264D01*
X18557D01*
X15631Y4829D02*
X16731D01*
Y5329D01*
X15631D02*
X16731D01*
X15631Y4829D02*
Y5329D01*
X16181Y5226D02*
Y5329D01*
X16083Y5187D02*
X16181Y5226D01*
X16083Y5187D02*
X16251Y5129D01*
X16081Y5069D02*
X16251Y5129D01*
X16081Y5069D02*
X16251Y4999D01*
X16081Y4949D02*
X16251Y4999D01*
X16081Y4949D02*
X16181Y4889D01*
Y4829D02*
Y4889D01*
X24659Y46714D02*
Y47814D01*
X24159D02*
X24659D01*
X24159Y46714D02*
Y47814D01*
Y46714D02*
X24659D01*
X24159Y47264D02*
X24262D01*
X24301Y47165D01*
X24359Y47334D01*
X24419Y47164D01*
X24489Y47334D01*
X24539Y47164D01*
X24599Y47264D01*
X24659D01*
X25545Y46714D02*
Y47814D01*
X25045D02*
X25545D01*
X25045Y46714D02*
Y47814D01*
Y46714D02*
X25545D01*
X25045Y47264D02*
X25148D01*
X25187Y47165D01*
X25245Y47334D01*
X25305Y47164D01*
X25375Y47334D01*
X25425Y47164D01*
X25485Y47264D01*
X25545D01*
X39380Y19350D02*
Y20450D01*
Y19350D02*
X39880D01*
Y20450D01*
X39380D02*
X39880D01*
X39778Y19900D02*
X39880D01*
X39738Y19998D02*
X39778Y19900D01*
X39680Y19830D02*
X39738Y19998D01*
X39620Y20000D02*
X39680Y19830D01*
X39550D02*
X39620Y20000D01*
X39500D02*
X39550Y19830D01*
X39440Y19900D02*
X39500Y20000D01*
X39380Y19900D02*
X39440D01*
X40570Y19340D02*
Y20440D01*
X40070D02*
X40570D01*
X40070Y19340D02*
Y20440D01*
Y19340D02*
X40570D01*
X40070Y19890D02*
X40172D01*
X40212Y19792D01*
X40270Y19960D01*
X40330Y19790D01*
X40400Y19960D01*
X40450Y19790D01*
X40510Y19890D01*
X40570D01*
X5292Y31440D02*
Y32540D01*
Y31440D02*
X5792D01*
Y32540D01*
X5292D02*
X5792D01*
X5689Y31990D02*
X5792D01*
X5650Y32089D02*
X5689Y31990D01*
X5592Y31920D02*
X5650Y32089D01*
X5532Y32090D02*
X5592Y31920D01*
X5462D02*
X5532Y32090D01*
X5412D02*
X5462Y31920D01*
X5352Y31990D02*
X5412Y32090D01*
X5292Y31990D02*
X5352D01*
X4414Y29826D02*
Y30926D01*
X3914D02*
X4414D01*
X3914Y29826D02*
Y30926D01*
Y29826D02*
X4414D01*
X3914Y30376D02*
X4016D01*
X4056Y30278D01*
X4114Y30446D01*
X4174Y30276D01*
X4244Y30446D01*
X4294Y30276D01*
X4354Y30376D01*
X4414D01*
X4371Y40407D02*
X5471D01*
X4371Y39907D02*
Y40407D01*
Y39907D02*
X5471D01*
Y40407D01*
X4921Y39907D02*
Y40010D01*
X5020Y40049D01*
X4851Y40107D02*
X5020Y40049D01*
X4851Y40107D02*
X5021Y40167D01*
X4851Y40237D02*
X5021Y40167D01*
X4851Y40237D02*
X5021Y40287D01*
X4921Y40347D02*
X5021Y40287D01*
X4921Y40347D02*
Y40407D01*
X38313Y12718D02*
Y13818D01*
Y12718D02*
X38813D01*
Y13818D01*
X38313D02*
X38813D01*
X38711Y13268D02*
X38813D01*
X38671Y13366D02*
X38711Y13268D01*
X38613Y13198D02*
X38671Y13366D01*
X38553Y13368D02*
X38613Y13198D01*
X38483D02*
X38553Y13368D01*
X38433D02*
X38483Y13198D01*
X38373Y13268D02*
X38433Y13368D01*
X38313Y13268D02*
X38373D01*
X3007Y27965D02*
X4107D01*
Y28465D01*
X3007D02*
X4107D01*
X3007Y27965D02*
Y28465D01*
X3557Y28362D02*
Y28465D01*
X3459Y28323D02*
X3557Y28362D01*
X3459Y28323D02*
X3627Y28265D01*
X3457Y28205D02*
X3627Y28265D01*
X3457Y28205D02*
X3627Y28135D01*
X3457Y28085D02*
X3627Y28135D01*
X3457Y28085D02*
X3557Y28025D01*
Y27965D02*
Y28025D01*
X37624Y12718D02*
Y13818D01*
Y12718D02*
X38124D01*
Y13818D01*
X37624D02*
X38124D01*
X38022Y13268D02*
X38124D01*
X37982Y13366D02*
X38022Y13268D01*
X37924Y13198D02*
X37982Y13366D01*
X37864Y13368D02*
X37924Y13198D01*
X37794D02*
X37864Y13368D01*
X37744D02*
X37794Y13198D01*
X37684Y13268D02*
X37744Y13368D01*
X37624Y13268D02*
X37684D01*
X43360Y15450D02*
X44460D01*
Y15950D01*
X43360D02*
X44460D01*
X43360Y15450D02*
Y15950D01*
X43910Y15848D02*
Y15950D01*
X43812Y15808D02*
X43910Y15848D01*
X43812Y15808D02*
X43980Y15750D01*
X43810Y15690D02*
X43980Y15750D01*
X43810Y15690D02*
X43980Y15620D01*
X43810Y15570D02*
X43980Y15620D01*
X43810Y15570D02*
X43910Y15510D01*
Y15450D02*
Y15510D01*
X32127Y15301D02*
X33227D01*
Y15801D01*
X32127D02*
X33227D01*
X32127Y15301D02*
Y15801D01*
X32677Y15699D02*
Y15801D01*
X32579Y15659D02*
X32677Y15699D01*
X32579Y15659D02*
X32747Y15601D01*
X32577Y15541D02*
X32747Y15601D01*
X32577Y15541D02*
X32747Y15471D01*
X32577Y15421D02*
X32747Y15471D01*
X32577Y15421D02*
X32677Y15361D01*
Y15301D02*
Y15361D01*
X31945Y12249D02*
X33045D01*
Y12749D01*
X31945D02*
X33045D01*
X31945Y12249D02*
Y12749D01*
X32495Y12646D02*
Y12749D01*
X32397Y12607D02*
X32495Y12646D01*
X32397Y12607D02*
X32565Y12549D01*
X32395Y12489D02*
X32565Y12549D01*
X32395Y12489D02*
X32565Y12419D01*
X32395Y12369D02*
X32565Y12419D01*
X32395Y12369D02*
X32495Y12309D01*
Y12249D02*
Y12309D01*
X33747Y27869D02*
X33786Y27908D01*
X33410Y27533D02*
X33464Y27586D01*
X32962Y27968D02*
X33775Y27155D01*
X34164Y27544D01*
X33351Y28357D02*
X34164Y27544D01*
X32962Y27968D02*
X33351Y28357D01*
X3358Y30070D02*
Y31470D01*
X2608Y30070D02*
X3358D01*
X2608D02*
Y31470D01*
X3358D01*
X2633Y30781D02*
X2873D01*
X3109D02*
X3333D01*
X2893Y30590D02*
Y30940D01*
X3090Y30590D02*
Y30940D01*
X13681Y6368D02*
X13898D01*
X13681Y6171D02*
X13898D01*
X13780Y6388D02*
Y6516D01*
Y6024D02*
Y6152D01*
X13205Y6535D02*
X14355D01*
X13205Y5985D02*
Y6535D01*
Y5985D02*
X14355D01*
Y6535D01*
X40292Y14998D02*
X40508D01*
X40292Y14801D02*
X40508D01*
X40390Y15018D02*
Y15146D01*
Y14654D02*
Y14782D01*
X39815Y15165D02*
X40965D01*
X39815Y14615D02*
Y15165D01*
Y14615D02*
X40965D01*
Y15165D01*
X30035Y22194D02*
X30251D01*
X30035Y21997D02*
X30251D01*
X30133Y22213D02*
Y22341D01*
Y21849D02*
Y21977D01*
X29558Y22360D02*
X30708D01*
X29558Y21810D02*
Y22360D01*
Y21810D02*
X30708D01*
Y22360D01*
X32259Y20796D02*
X32476D01*
X32259Y20993D02*
X32476D01*
X32377Y20648D02*
Y20776D01*
Y21013D02*
Y21141D01*
X31802Y20629D02*
X32952D01*
Y21179D01*
X31802D02*
X32952D01*
X31802Y20629D02*
Y21179D01*
X31856Y18345D02*
Y18562D01*
X31659Y18345D02*
Y18562D01*
X31875Y18463D02*
X32003D01*
X31511D02*
X31639D01*
X32022Y17888D02*
Y19038D01*
X31472D02*
X32022D01*
X31472Y17888D02*
Y19038D01*
Y17888D02*
X32022D01*
X39360Y13150D02*
Y13366D01*
X39163Y13150D02*
Y13366D01*
X39380Y13268D02*
X39508D01*
X39016D02*
X39144D01*
X39527Y12693D02*
Y13843D01*
X38977D02*
X39527D01*
X38977Y12693D02*
Y13843D01*
Y12693D02*
X39527D01*
X29951Y12874D02*
Y13091D01*
X29754Y12874D02*
Y13091D01*
X29970Y12992D02*
X30098D01*
X29606D02*
X29734D01*
X30118Y12417D02*
Y13567D01*
X29568D02*
X30118D01*
X29568Y12417D02*
Y13567D01*
Y12417D02*
X30118D01*
X29592Y14802D02*
Y15019D01*
X29789Y14802D02*
Y15019D01*
X29444Y14900D02*
X29572D01*
X29808D02*
X29936D01*
X29425Y14325D02*
Y15475D01*
Y14325D02*
X29975D01*
Y15475D01*
X29425D02*
X29975D01*
X30231Y11505D02*
X30448D01*
X30231Y11308D02*
X30448D01*
X30330Y11524D02*
Y11652D01*
Y11160D02*
Y11288D01*
X29755Y11671D02*
X30905D01*
X29755Y11121D02*
Y11671D01*
Y11121D02*
X30905D01*
Y11671D01*
X31639Y13936D02*
Y14152D01*
X31836Y13936D02*
Y14152D01*
X31491Y14034D02*
X31619D01*
X31856D02*
X31983D01*
X31472Y13459D02*
Y14609D01*
Y13459D02*
X32022D01*
Y14609D01*
X31472D02*
X32022D01*
X27397Y13198D02*
X27613D01*
X27397Y13394D02*
X27613D01*
X27515Y13050D02*
Y13178D01*
Y13414D02*
Y13542D01*
X26940Y13031D02*
X28090D01*
Y13581D01*
X26940D02*
X28090D01*
X26940Y13031D02*
Y13581D01*
X35243Y26229D02*
X35396Y26076D01*
X35104Y26090D02*
X35257Y25937D01*
X35327Y26173D02*
X35417Y26264D01*
X35069Y25916D02*
X35160Y26006D01*
X35024Y26684D02*
X35837Y25871D01*
X34635Y26295D02*
X35024Y26684D01*
X34635Y26295D02*
X35448Y25482D01*
X35837Y25871D01*
X36024Y2175D02*
X36240D01*
X36024Y2372D02*
X36240D01*
X36142Y2028D02*
Y2156D01*
Y2392D02*
Y2520D01*
X35567Y2008D02*
X36717D01*
Y2558D01*
X35567D02*
X36717D01*
X35567Y2008D02*
Y2558D01*
X46880Y43032D02*
Y43248D01*
X46683Y43032D02*
Y43248D01*
X46900Y43150D02*
X47028D01*
X46535D02*
X46663D01*
X47047Y42575D02*
Y43725D01*
X46497D02*
X47047D01*
X46497Y42575D02*
Y43725D01*
Y42575D02*
X47047D01*
X48987Y42362D02*
Y42579D01*
X48790Y42362D02*
Y42579D01*
X49006Y42480D02*
X49134D01*
X48642D02*
X48770D01*
X49153Y41905D02*
Y43055D01*
X48603D02*
X49153D01*
X48603Y41905D02*
Y43055D01*
Y41905D02*
X49153D01*
X32429Y21430D02*
Y22230D01*
X5849Y33126D02*
Y33926D01*
X5967Y30370D02*
Y31170D01*
X27267Y13890D02*
Y14690D01*
X32312Y13884D02*
X33112D01*
X32292Y18259D02*
X33092D01*
X29570Y20741D02*
Y21541D01*
D82*
X10630Y43602D02*
Y43917D01*
X10525Y43812D01*
X10420Y43917D01*
Y43602D01*
X10105Y43865D02*
X10158Y43917D01*
X10263D01*
X10315Y43865D01*
Y43655D01*
X10263Y43602D01*
X10158D01*
X10105Y43655D01*
X10000Y43917D02*
Y43655D01*
X9948Y43602D01*
X9843D01*
X9790Y43655D01*
Y43917D01*
X9685Y43550D02*
X9475D01*
X9370Y43602D02*
Y43917D01*
X9213D01*
X9161Y43865D01*
Y43760D01*
X9213Y43707D01*
X9370D01*
X9266D02*
X9161Y43602D01*
X9056Y43812D02*
X8846Y43602D01*
X8951Y43707D01*
X8846Y43812D01*
X9056Y43602D01*
X10630Y45472D02*
Y45787D01*
X10525Y45682D01*
X10420Y45787D01*
Y45472D01*
X10105Y45735D02*
X10158Y45787D01*
X10263D01*
X10315Y45735D01*
Y45525D01*
X10263Y45472D01*
X10158D01*
X10105Y45525D01*
X10000Y45787D02*
Y45525D01*
X9948Y45472D01*
X9843D01*
X9790Y45525D01*
Y45787D01*
X9685Y45420D02*
X9475D01*
X9370Y45787D02*
X9161D01*
X9266D01*
Y45472D01*
X9056Y45682D02*
X8846Y45472D01*
X8951Y45577D01*
X8846Y45682D01*
X9056Y45472D01*
X4724D02*
Y45787D01*
X4619Y45682D01*
X4514Y45787D01*
Y45472D01*
X4200Y45735D02*
X4252Y45787D01*
X4357D01*
X4410Y45735D01*
Y45525D01*
X4357Y45472D01*
X4252D01*
X4200Y45525D01*
X4095Y45787D02*
Y45525D01*
X4042Y45472D01*
X3937D01*
X3885Y45525D01*
Y45787D01*
X3780Y45420D02*
X3570D01*
X3465Y45787D02*
X3255D01*
X3360D01*
Y45472D01*
X3150Y45682D02*
X2940Y45472D01*
X3045Y45577D01*
X2940Y45682D01*
X3150Y45472D01*
X4724Y43504D02*
Y43819D01*
X4619Y43714D01*
X4514Y43819D01*
Y43504D01*
X4200Y43766D02*
X4252Y43819D01*
X4357D01*
X4410Y43766D01*
Y43556D01*
X4357Y43504D01*
X4252D01*
X4200Y43556D01*
X4095Y43819D02*
Y43556D01*
X4042Y43504D01*
X3937D01*
X3885Y43556D01*
Y43819D01*
X3780Y43451D02*
X3570D01*
X3465Y43504D02*
Y43819D01*
X3308D01*
X3255Y43766D01*
Y43661D01*
X3308Y43609D01*
X3465D01*
X3360D02*
X3255Y43504D01*
X3150Y43714D02*
X2940Y43504D01*
X3045Y43609D01*
X2940Y43714D01*
X3150Y43504D01*
X28189Y23543D02*
X28294D01*
X28346Y23491D01*
Y23281D01*
X28294Y23228D01*
X28189D01*
X28137Y23281D01*
Y23491D01*
X28189Y23543D01*
X27822D02*
X28032D01*
Y23386D01*
X27927D01*
X28032D01*
Y23228D01*
X27507Y23543D02*
X27717D01*
Y23386D01*
X27612D01*
X27717D01*
Y23228D01*
X28189Y22165D02*
X28294D01*
X28346Y22113D01*
Y21903D01*
X28294Y21850D01*
X28189D01*
X28137Y21903D01*
Y22113D01*
X28189Y22165D01*
X28032Y21850D02*
Y22165D01*
X27822Y21850D01*
Y22165D01*
X32283Y19882D02*
Y20197D01*
X32074Y19882D01*
Y20197D01*
X31811D02*
X31916D01*
X31969Y20144D01*
Y19934D01*
X31916Y19882D01*
X31811D01*
X31759Y19934D01*
Y20144D01*
X31811Y20197D01*
X31654Y19882D02*
Y20197D01*
X31496D01*
X31444Y20144D01*
Y20039D01*
X31496Y19987D01*
X31654D01*
X31549D02*
X31444Y19882D01*
X31339D02*
Y20197D01*
X31234Y20092D01*
X31129Y20197D01*
Y19882D01*
X31024D02*
Y20092D01*
X30919Y20197D01*
X30814Y20092D01*
Y19882D01*
Y20039D01*
X31024D01*
X30709Y20197D02*
Y19882D01*
X30499D01*
X28937Y20197D02*
Y19882D01*
X28727D01*
X28465Y20197D02*
X28570D01*
X28622Y20144D01*
Y19934D01*
X28570Y19882D01*
X28465D01*
X28412Y19934D01*
Y20144D01*
X28465Y20197D01*
X28307D02*
Y19882D01*
X28202Y19987D01*
X28097Y19882D01*
Y20197D01*
X24154Y2598D02*
Y2205D01*
X24350D01*
X24416Y2270D01*
Y2402D01*
X24350Y2467D01*
X24154D01*
X24285D02*
X24416Y2598D01*
X28091Y2205D02*
Y2598D01*
X28353D01*
X19055D02*
Y2205D01*
X19252D01*
X19318Y2270D01*
Y2402D01*
X19252Y2467D01*
X19055D01*
X19186D02*
X19318Y2598D01*
X22992Y2205D02*
Y2598D01*
X23255D01*
X13957D02*
Y2205D01*
X14153D01*
X14219Y2270D01*
Y2402D01*
X14153Y2467D01*
X13957D01*
X14088D02*
X14219Y2598D01*
X17894Y2205D02*
Y2598D01*
X18156D01*
X33071Y48622D02*
Y49016D01*
X32874D01*
X32808Y48950D01*
Y48819D01*
X32874Y48753D01*
X33071D01*
X32940D02*
X32808Y48622D01*
X29134Y49016D02*
Y48622D01*
X28871D01*
X39370D02*
Y49016D01*
X39173D01*
X39108Y48950D01*
Y48819D01*
X39173Y48753D01*
X39370D01*
X39239D02*
X39108Y48622D01*
X35433Y49016D02*
Y48622D01*
X35171D01*
D83*
X26000Y20830D02*
X26200D01*
X26100D01*
Y20330D01*
X26200Y20230D01*
X26300D01*
X26400Y20330D01*
X25800Y20230D02*
Y20830D01*
X25500D01*
X25400Y20730D01*
Y20530D01*
X25500Y20430D01*
X25800D01*
X25200Y20230D02*
X25000D01*
X25100D01*
Y20830D01*
X25200Y20730D01*
X7480Y42520D02*
Y43119D01*
X7180D01*
X7080Y43020D01*
Y42820D01*
X7180Y42720D01*
X7480D01*
X7280D02*
X7080Y42520D01*
X6581D02*
Y43119D01*
X6881Y42820D01*
X6481D01*
X6281Y43020D02*
X6181Y43119D01*
X5981D01*
X5881Y43020D01*
Y42920D01*
X5981Y42820D01*
X5881Y42720D01*
Y42620D01*
X5981Y42520D01*
X6181D01*
X6281Y42620D01*
Y42720D01*
X6181Y42820D01*
X6281Y42920D01*
Y43020D01*
X6181Y42820D02*
X5981D01*
X11220Y42520D02*
Y43119D01*
X10921D01*
X10821Y43020D01*
Y42820D01*
X10921Y42720D01*
X11220D01*
X11021D02*
X10821Y42520D01*
X10321D02*
Y43119D01*
X10621Y42820D01*
X10221D01*
X7766Y48720D02*
X8366D01*
Y48421D01*
X8266Y48321D01*
X8166D01*
X8066Y48421D01*
Y48720D01*
Y48421D01*
X7966Y48321D01*
X7866D01*
X7766Y48421D01*
Y48720D01*
Y48121D02*
Y47721D01*
Y47921D01*
X8366D01*
X8466Y47521D02*
Y47121D01*
X8366Y46921D02*
X7766D01*
Y46621D01*
X7866Y46521D01*
X8066D01*
X8166Y46621D01*
Y46921D01*
Y46721D02*
X8366Y46521D01*
X7966Y46321D02*
X8366Y45921D01*
X8166Y46121D01*
X7966Y45921D01*
X8366Y46321D01*
X10424Y48819D02*
X11024D01*
Y48519D01*
X10924Y48419D01*
X10824D01*
X10724Y48519D01*
Y48819D01*
Y48519D01*
X10624Y48419D01*
X10524D01*
X10424Y48519D01*
Y48819D01*
Y48219D02*
Y47819D01*
Y48019D01*
X11024D01*
X11124Y47619D02*
Y47219D01*
X10424Y47019D02*
Y46620D01*
Y46820D01*
X11024D01*
X10624Y46420D02*
X11024Y46020D01*
X10824Y46220D01*
X10624Y46020D01*
X11024Y46420D01*
X49738Y42911D02*
X49838Y43011D01*
X50038D01*
X50138Y42911D01*
Y42511D01*
X50038Y42411D01*
X49838D01*
X49738Y42511D01*
X49538Y42411D02*
X49338D01*
X49438D01*
Y43011D01*
X49538Y42911D01*
X47868Y43610D02*
X47968Y43710D01*
X48168D01*
X48268Y43610D01*
Y43210D01*
X48168Y43110D01*
X47968D01*
X47868Y43210D01*
X47668Y43610D02*
X47568Y43710D01*
X47368D01*
X47268Y43610D01*
Y43510D01*
X47368Y43410D01*
X47468D01*
X47368D01*
X47268Y43310D01*
Y43210D01*
X47368Y43110D01*
X47568D01*
X47668Y43210D01*
X36242Y3384D02*
X36342Y3484D01*
X36542D01*
X36642Y3384D01*
Y2984D01*
X36542Y2884D01*
X36342D01*
X36242Y2984D01*
X35742Y2884D02*
Y3484D01*
X36042Y3184D01*
X35642D01*
X25830Y14653D02*
X25930Y14753D01*
X26130D01*
X26230Y14653D01*
Y14254D01*
X26130Y14154D01*
X25930D01*
X25830Y14254D01*
X25631Y14154D02*
X25431D01*
X25531D01*
Y14753D01*
X25631Y14653D01*
X24731Y14154D02*
X25131D01*
X24731Y14553D01*
Y14653D01*
X24831Y14753D01*
X25031D01*
X25131Y14653D01*
X34541Y13689D02*
X34641Y13789D01*
X34841D01*
X34941Y13689D01*
Y13289D01*
X34841Y13189D01*
X34641D01*
X34541Y13289D01*
X34341Y13189D02*
X34141D01*
X34241D01*
Y13789D01*
X34341Y13689D01*
X33841D02*
X33741Y13789D01*
X33541D01*
X33441Y13689D01*
Y13589D01*
X33541Y13489D01*
X33641D01*
X33541D01*
X33441Y13389D01*
Y13289D01*
X33541Y13189D01*
X33741D01*
X33841Y13289D01*
X37199Y26090D02*
X37299Y26190D01*
X37498D01*
X37598Y26090D01*
Y25691D01*
X37498Y25591D01*
X37299D01*
X37199Y25691D01*
X36999Y25591D02*
X36799D01*
X36899D01*
Y26190D01*
X36999Y26090D01*
X36199Y25591D02*
Y26190D01*
X36499Y25890D01*
X36099D01*
X26293Y13492D02*
X26393Y13592D01*
X26593D01*
X26693Y13492D01*
Y13092D01*
X26593Y12992D01*
X26393D01*
X26293Y13092D01*
X26093Y12992D02*
X25893D01*
X25993D01*
Y13592D01*
X26093Y13492D01*
X25193Y13592D02*
X25593D01*
Y13292D01*
X25393Y13392D01*
X25293D01*
X25193Y13292D01*
Y13092D01*
X25293Y12992D01*
X25493D01*
X25593Y13092D01*
X31897Y15262D02*
X31997Y15162D01*
Y14962D01*
X31897Y14862D01*
X31498D01*
X31398Y14962D01*
Y15162D01*
X31498Y15262D01*
X31398Y15462D02*
Y15662D01*
Y15562D01*
X31997D01*
X31897Y15462D01*
X31997Y16362D02*
X31897Y16162D01*
X31698Y15962D01*
X31498D01*
X31398Y16062D01*
Y16262D01*
X31498Y16362D01*
X31598D01*
X31698Y16262D01*
Y15962D01*
X32366Y11563D02*
X32466Y11663D01*
X32666D01*
X32766Y11563D01*
Y11163D01*
X32666Y11063D01*
X32466D01*
X32366Y11163D01*
X32166Y11063D02*
X31966D01*
X32066D01*
Y11663D01*
X32166Y11563D01*
X31666Y11663D02*
X31266D01*
Y11563D01*
X31666Y11163D01*
Y11063D01*
X29929Y16148D02*
X30029Y16048D01*
Y15848D01*
X29929Y15748D01*
X29529D01*
X29429Y15848D01*
Y16048D01*
X29529Y16148D01*
X29429Y16348D02*
Y16548D01*
Y16448D01*
X30029D01*
X29929Y16348D01*
X29529Y16848D02*
X29429Y16948D01*
Y17148D01*
X29529Y17248D01*
X29929D01*
X30029Y17148D01*
Y16948D01*
X29929Y16848D01*
X29829D01*
X29729Y16948D01*
Y17248D01*
X29279Y11985D02*
X29379Y11885D01*
Y11685D01*
X29279Y11585D01*
X28879D01*
X28780Y11685D01*
Y11885D01*
X28879Y11985D01*
X28780Y12584D02*
Y12184D01*
X29179Y12584D01*
X29279D01*
X29379Y12484D01*
Y12284D01*
X29279Y12184D01*
X28780Y13184D02*
Y12784D01*
X29179Y13184D01*
X29279D01*
X29379Y13084D01*
Y12884D01*
X29279Y12784D01*
X40958Y13728D02*
X41058Y13828D01*
X41258D01*
X41358Y13728D01*
Y13328D01*
X41258Y13228D01*
X41058D01*
X40958Y13328D01*
X40359Y13228D02*
X40758D01*
X40359Y13628D01*
Y13728D01*
X40459Y13828D01*
X40658D01*
X40758Y13728D01*
X40159D02*
X40059Y13828D01*
X39859D01*
X39759Y13728D01*
Y13628D01*
X39859Y13528D01*
X39959D01*
X39859D01*
X39759Y13428D01*
Y13328D01*
X39859Y13228D01*
X40059D01*
X40159Y13328D01*
X33866Y17526D02*
X33966Y17426D01*
Y17226D01*
X33866Y17126D01*
X33466D01*
X33366Y17226D01*
Y17426D01*
X33466Y17526D01*
X33366Y18126D02*
Y17726D01*
X33766Y18126D01*
X33866D01*
X33966Y18026D01*
Y17826D01*
X33866Y17726D01*
X33366Y18626D02*
X33966D01*
X33666Y18326D01*
Y18725D01*
X34738Y22163D02*
X34838Y22263D01*
X35038D01*
X35138Y22163D01*
Y21763D01*
X35038Y21663D01*
X34838D01*
X34738Y21763D01*
X34138Y21663D02*
X34538D01*
X34138Y22063D01*
Y22163D01*
X34238Y22263D01*
X34438D01*
X34538Y22163D01*
X33538Y22263D02*
X33938D01*
Y21963D01*
X33738Y22063D01*
X33638D01*
X33538Y21963D01*
Y21763D01*
X33638Y21663D01*
X33838D01*
X33938Y21763D01*
X31280Y18110D02*
X31380Y18010D01*
Y17810D01*
X31280Y17710D01*
X30880D01*
X30780Y17810D01*
Y18010D01*
X30880Y18110D01*
X30780Y18710D02*
Y18310D01*
X31180Y18710D01*
X31280D01*
X31380Y18610D01*
Y18410D01*
X31280Y18310D01*
X31380Y19309D02*
X31280Y19110D01*
X31080Y18910D01*
X30880D01*
X30780Y19010D01*
Y19210D01*
X30880Y19309D01*
X30980D01*
X31080Y19210D01*
Y18910D01*
X34384Y21012D02*
X34484Y21112D01*
X34683D01*
X34783Y21012D01*
Y20612D01*
X34683Y20512D01*
X34484D01*
X34384Y20612D01*
X33784Y20512D02*
X34184D01*
X33784Y20912D01*
Y21012D01*
X33884Y21112D01*
X34084D01*
X34184Y21012D01*
X33584Y21112D02*
X33184D01*
Y21012D01*
X33584Y20612D01*
Y20512D01*
X31060Y23110D02*
X31160Y23210D01*
X31360D01*
X31460Y23110D01*
Y22710D01*
X31360Y22610D01*
X31160D01*
X31060Y22710D01*
X30860Y23110D02*
X30760Y23210D01*
X30560D01*
X30460Y23110D01*
Y23010D01*
X30560Y22910D01*
X30660D01*
X30560D01*
X30460Y22810D01*
Y22710D01*
X30560Y22610D01*
X30760D01*
X30860Y22710D01*
X29861Y22610D02*
X30260D01*
X29861Y23010D01*
Y23110D01*
X29960Y23210D01*
X30160D01*
X30260Y23110D01*
X31150Y23900D02*
X31250Y24000D01*
X31450D01*
X31550Y23900D01*
Y23500D01*
X31450Y23400D01*
X31250D01*
X31150Y23500D01*
X30950Y23900D02*
X30850Y24000D01*
X30650D01*
X30550Y23900D01*
Y23800D01*
X30650Y23700D01*
X30750D01*
X30650D01*
X30550Y23600D01*
Y23500D01*
X30650Y23400D01*
X30850D01*
X30950Y23500D01*
X30350Y23900D02*
X30250Y24000D01*
X30050D01*
X29951Y23900D01*
Y23800D01*
X30050Y23700D01*
X30150D01*
X30050D01*
X29951Y23600D01*
Y23500D01*
X30050Y23400D01*
X30250D01*
X30350Y23500D01*
X1864Y31307D02*
X1964Y31407D01*
X2164D01*
X2264Y31307D01*
Y30907D01*
X2164Y30807D01*
X1964D01*
X1864Y30907D01*
X1664Y31307D02*
X1564Y31407D01*
X1364D01*
X1264Y31307D01*
Y31207D01*
X1364Y31107D01*
X1464D01*
X1364D01*
X1264Y31007D01*
Y30907D01*
X1364Y30807D01*
X1564D01*
X1664Y30907D01*
X1064Y31307D02*
X964Y31407D01*
X764D01*
X664Y31307D01*
Y31207D01*
X764Y31107D01*
X664Y31007D01*
Y30907D01*
X764Y30807D01*
X964D01*
X1064Y30907D01*
Y31007D01*
X964Y31107D01*
X1064Y31207D01*
Y31307D01*
X964Y31107D02*
X764D01*
X8468Y31130D02*
X8568Y31230D01*
X8768D01*
X8868Y31130D01*
Y30730D01*
X8768Y30630D01*
X8568D01*
X8468Y30730D01*
X8268Y31130D02*
X8168Y31230D01*
X7968D01*
X7868Y31130D01*
Y31030D01*
X7968Y30930D01*
X8068D01*
X7968D01*
X7868Y30830D01*
Y30730D01*
X7968Y30630D01*
X8168D01*
X8268Y30730D01*
X7668D02*
X7569Y30630D01*
X7369D01*
X7269Y30730D01*
Y31130D01*
X7369Y31230D01*
X7569D01*
X7668Y31130D01*
Y31030D01*
X7569Y30930D01*
X7269D01*
X41293Y15834D02*
X41393Y15934D01*
X41593D01*
X41693Y15834D01*
Y15435D01*
X41593Y15335D01*
X41393D01*
X41293Y15435D01*
X40793Y15335D02*
Y15934D01*
X41093Y15635D01*
X40693D01*
X40493Y15335D02*
X40293D01*
X40393D01*
Y15934D01*
X40493Y15834D01*
X8114Y33876D02*
X8214Y33976D01*
X8414D01*
X8514Y33876D01*
Y33476D01*
X8414Y33376D01*
X8214D01*
X8114Y33476D01*
X7614Y33376D02*
Y33976D01*
X7914Y33676D01*
X7514D01*
X6914Y33376D02*
X7314D01*
X6914Y33776D01*
Y33876D01*
X7014Y33976D01*
X7214D01*
X7314Y33876D01*
X12592Y6405D02*
X12692Y6505D01*
X12892D01*
X12992Y6405D01*
Y6005D01*
X12892Y5906D01*
X12692D01*
X12592Y6005D01*
X12092Y5906D02*
Y6505D01*
X12392Y6205D01*
X11992D01*
X11793Y6405D02*
X11693Y6505D01*
X11493D01*
X11393Y6405D01*
Y6305D01*
X11493Y6205D01*
X11593D01*
X11493D01*
X11393Y6105D01*
Y6005D01*
X11493Y5906D01*
X11693D01*
X11793Y6005D01*
X2657Y27568D02*
Y26969D01*
X2358D01*
X2258Y27068D01*
Y27468D01*
X2358Y27568D01*
X2657D01*
X1658D02*
X2058D01*
Y27268D01*
X1858Y27368D01*
X1758D01*
X1658Y27268D01*
Y27068D01*
X1758Y26969D01*
X1958D01*
X2058Y27068D01*
X30915Y14075D02*
X30315D01*
Y14375D01*
X30415Y14475D01*
X30815D01*
X30915Y14375D01*
Y14075D01*
Y14675D02*
Y15074D01*
X30815D01*
X30415Y14675D01*
X30315D01*
X38780Y45777D02*
Y45177D01*
X38480D01*
X38380Y45277D01*
Y45677D01*
X38480Y45777D01*
X38780D01*
X38180Y45177D02*
X37980D01*
X38080D01*
Y45777D01*
X38180Y45677D01*
X37680D02*
X37580Y45777D01*
X37380D01*
X37280Y45677D01*
Y45577D01*
X37380Y45477D01*
X37280Y45377D01*
Y45277D01*
X37380Y45177D01*
X37580D01*
X37680Y45277D01*
Y45377D01*
X37580Y45477D01*
X37680Y45577D01*
Y45677D01*
X37580Y45477D02*
X37380D01*
X38780Y44891D02*
Y44291D01*
X38480D01*
X38380Y44391D01*
Y44791D01*
X38480Y44891D01*
X38780D01*
X37780Y44291D02*
X38180D01*
X37780Y44691D01*
Y44791D01*
X37880Y44891D01*
X38080D01*
X38180Y44791D01*
X37280Y44291D02*
Y44891D01*
X37580Y44591D01*
X37180D01*
X28327Y22992D02*
Y22392D01*
X28027D01*
X27927Y22492D01*
Y22892D01*
X28027Y22992D01*
X28327D01*
X27327D02*
X27727D01*
Y22392D01*
X27327D01*
X27727Y22692D02*
X27527D01*
X27127Y22392D02*
Y22992D01*
X26927Y22792D01*
X26727Y22992D01*
Y22392D01*
X26527D02*
Y22992D01*
X26227D01*
X26127Y22892D01*
Y22692D01*
X26227Y22592D01*
X26527D01*
X25928Y22392D02*
X25728D01*
X25828D01*
Y22992D01*
X25928Y22892D01*
X35132Y28060D02*
X35531D01*
Y27761D01*
X35332D01*
X35531D01*
Y27461D01*
X34932Y27960D02*
X34832Y28060D01*
X34632D01*
X34532Y27960D01*
Y27861D01*
X34632Y27761D01*
X34732D01*
X34632D01*
X34532Y27661D01*
Y27561D01*
X34632Y27461D01*
X34832D01*
X34932Y27561D01*
X28150Y19340D02*
X28550D01*
Y19040D01*
X28350D01*
X28550D01*
Y18740D01*
X27950Y19340D02*
X27750D01*
X27850D01*
Y18740D01*
X27950D01*
X27750D01*
X27450Y19340D02*
Y18740D01*
X27050D01*
X26851Y19340D02*
X26451D01*
X26651D01*
Y18740D01*
X26251D02*
X26051D01*
X26151D01*
Y19340D01*
X26251Y19240D01*
X34154Y12205D02*
Y12805D01*
X33854D01*
X33754Y12705D01*
Y12505D01*
X33854Y12405D01*
X34154D01*
X33954D02*
X33754Y12205D01*
X33554D02*
X33354D01*
X33454D01*
Y12805D01*
X33554Y12705D01*
X34449Y15256D02*
Y15856D01*
X34149D01*
X34049Y15756D01*
Y15556D01*
X34149Y15456D01*
X34449D01*
X34249D02*
X34049Y15256D01*
X33449D02*
X33849D01*
X33449Y15656D01*
Y15756D01*
X33549Y15856D01*
X33749D01*
X33849Y15756D01*
X45758Y15413D02*
Y16013D01*
X45458D01*
X45358Y15913D01*
Y15713D01*
X45458Y15613D01*
X45758D01*
X45558D02*
X45358Y15413D01*
X45158Y16013D02*
X44758D01*
Y15913D01*
X45158Y15513D01*
Y15413D01*
X37372Y10906D02*
X37972D01*
Y11205D01*
X37872Y11305D01*
X37672D01*
X37572Y11205D01*
Y10906D01*
Y11105D02*
X37372Y11305D01*
Y11505D02*
Y11705D01*
Y11605D01*
X37972D01*
X37872Y11505D01*
X37372Y12405D02*
Y12005D01*
X37772Y12405D01*
X37872D01*
X37972Y12305D01*
Y12105D01*
X37872Y12005D01*
X2756Y27953D02*
Y28553D01*
X2456D01*
X2356Y28453D01*
Y28253D01*
X2456Y28153D01*
X2756D01*
X2556D02*
X2356Y27953D01*
X2156D02*
X1956D01*
X2056D01*
Y28553D01*
X2156Y28453D01*
X1656D02*
X1556Y28553D01*
X1356D01*
X1256Y28453D01*
Y28353D01*
X1356Y28253D01*
X1456D01*
X1356D01*
X1256Y28153D01*
Y28053D01*
X1356Y27953D01*
X1556D01*
X1656Y28053D01*
X38258Y10906D02*
X38858D01*
Y11205D01*
X38758Y11305D01*
X38558D01*
X38458Y11205D01*
Y10906D01*
Y11105D02*
X38258Y11305D01*
Y11505D02*
Y11705D01*
Y11605D01*
X38858D01*
X38758Y11505D01*
X38858Y12405D02*
Y12005D01*
X38558D01*
X38658Y12205D01*
Y12305D01*
X38558Y12405D01*
X38358D01*
X38258Y12305D01*
Y12105D01*
X38358Y12005D01*
X7402Y39833D02*
Y40432D01*
X7102D01*
X7002Y40333D01*
Y40133D01*
X7102Y40033D01*
X7402D01*
X7202D02*
X7002Y39833D01*
X6402D02*
X6802D01*
X6402Y40233D01*
Y40333D01*
X6502Y40432D01*
X6702D01*
X6802Y40333D01*
X5802Y40432D02*
X6002Y40333D01*
X6202Y40133D01*
Y39933D01*
X6102Y39833D01*
X5902D01*
X5802Y39933D01*
Y40033D01*
X5902Y40133D01*
X6202D01*
X6063Y29104D02*
Y29704D01*
X5763D01*
X5663Y29604D01*
Y29404D01*
X5763Y29304D01*
X6063D01*
X5863D02*
X5663Y29104D01*
X5063D02*
X5463D01*
X5063Y29504D01*
Y29604D01*
X5163Y29704D01*
X5363D01*
X5463Y29604D01*
X4863D02*
X4763Y29704D01*
X4563D01*
X4464Y29604D01*
Y29504D01*
X4563Y29404D01*
X4464Y29304D01*
Y29204D01*
X4563Y29104D01*
X4763D01*
X4863Y29204D01*
Y29304D01*
X4763Y29404D01*
X4863Y29504D01*
Y29604D01*
X4763Y29404D02*
X4563D01*
X4774Y31870D02*
Y32470D01*
X4474D01*
X4374Y32370D01*
Y32170D01*
X4474Y32070D01*
X4774D01*
X4574D02*
X4374Y31870D01*
X4174Y32370D02*
X4074Y32470D01*
X3874D01*
X3774Y32370D01*
Y32270D01*
X3874Y32170D01*
X3974D01*
X3874D01*
X3774Y32070D01*
Y31970D01*
X3874Y31870D01*
X4074D01*
X4174Y31970D01*
X3574Y32370D02*
X3474Y32470D01*
X3274D01*
X3174Y32370D01*
Y31970D01*
X3274Y31870D01*
X3474D01*
X3574Y31970D01*
Y32370D01*
X40059Y20768D02*
X40659D01*
Y21068D01*
X40559Y21168D01*
X40359D01*
X40259Y21068D01*
Y20768D01*
Y20968D02*
X40059Y21168D01*
X40559Y21368D02*
X40659Y21467D01*
Y21667D01*
X40559Y21767D01*
X40459D01*
X40359Y21667D01*
Y21567D01*
Y21667D01*
X40259Y21767D01*
X40159D01*
X40059Y21667D01*
Y21467D01*
X40159Y21368D01*
X40059Y22367D02*
Y21967D01*
X40459Y22367D01*
X40559D01*
X40659Y22267D01*
Y22067D01*
X40559Y21967D01*
X39075Y20768D02*
X39675D01*
Y21068D01*
X39575Y21168D01*
X39375D01*
X39275Y21068D01*
Y20768D01*
Y20968D02*
X39075Y21168D01*
X39575Y21368D02*
X39675Y21467D01*
Y21667D01*
X39575Y21767D01*
X39475D01*
X39375Y21667D01*
Y21567D01*
Y21667D01*
X39275Y21767D01*
X39175D01*
X39075Y21667D01*
Y21467D01*
X39175Y21368D01*
X39675Y22367D02*
X39575Y22167D01*
X39375Y21967D01*
X39175D01*
X39075Y22067D01*
Y22267D01*
X39175Y22367D01*
X39275D01*
X39375Y22267D01*
Y21967D01*
X25276Y44764D02*
X25875D01*
Y45064D01*
X25775Y45164D01*
X25575D01*
X25476Y45064D01*
Y44764D01*
Y44964D02*
X25276Y45164D01*
X25775Y45364D02*
X25875Y45464D01*
Y45663D01*
X25775Y45763D01*
X25675D01*
X25575Y45663D01*
Y45564D01*
Y45663D01*
X25476Y45763D01*
X25376D01*
X25276Y45663D01*
Y45464D01*
X25376Y45364D01*
X25875Y45963D02*
Y46363D01*
X25775D01*
X25376Y45963D01*
X25276D01*
X23652Y44754D02*
X24251D01*
Y45054D01*
X24151Y45154D01*
X23951D01*
X23852Y45054D01*
Y44754D01*
Y44954D02*
X23652Y45154D01*
X24151Y45354D02*
X24251Y45454D01*
Y45654D01*
X24151Y45754D01*
X24051D01*
X23951Y45654D01*
Y45554D01*
Y45654D01*
X23852Y45754D01*
X23752D01*
X23652Y45654D01*
Y45454D01*
X23752Y45354D01*
X24151Y45954D02*
X24251Y46054D01*
Y46253D01*
X24151Y46353D01*
X24051D01*
X23951Y46253D01*
X23852Y46353D01*
X23752D01*
X23652Y46253D01*
Y46054D01*
X23752Y45954D01*
X23852D01*
X23951Y46054D01*
X24051Y45954D01*
X24151D01*
X23951Y46054D02*
Y46253D01*
X18602Y4724D02*
Y5324D01*
X18302D01*
X18202Y5224D01*
Y5024D01*
X18302Y4924D01*
X18602D01*
X18402D02*
X18202Y4724D01*
X17703D02*
Y5324D01*
X18003Y5024D01*
X17603D01*
X17003Y5324D02*
X17403D01*
Y5024D01*
X17203Y5124D01*
X17103D01*
X17003Y5024D01*
Y4824D01*
X17103Y4724D01*
X17303D01*
X17403Y4824D01*
X45472Y46368D02*
Y45868D01*
X45372Y45768D01*
X45173D01*
X45073Y45868D01*
Y46368D01*
X44873Y45768D02*
X44673D01*
X44773D01*
Y46368D01*
X44873Y46268D01*
X2076Y45768D02*
X1476D01*
X1676Y45968D01*
X1476Y46168D01*
X2076D01*
X1476Y46368D02*
Y46567D01*
Y46467D01*
X1876D01*
Y46368D01*
X1476Y46967D02*
X1976D01*
X1776D01*
Y46867D01*
Y47067D01*
Y46967D01*
X1976D01*
X2076Y47067D01*
X1476Y47367D02*
Y47567D01*
Y47467D01*
X1876D01*
Y47367D01*
X1376Y47867D02*
Y48267D01*
X1476Y48467D02*
X2076D01*
Y48767D01*
X1976Y48867D01*
X1776D01*
X1676Y48767D01*
Y48467D01*
Y48667D02*
X1476Y48867D01*
X1876Y49067D02*
X1476Y49467D01*
X1676Y49267D01*
X1876Y49467D01*
X1476Y49067D01*
X6210Y45669D02*
X5610D01*
X5810Y45869D01*
X5610Y46069D01*
X6210D01*
X5610Y46269D02*
Y46469D01*
Y46369D01*
X6010D01*
Y46269D01*
X5610Y46869D02*
X6110D01*
X5910D01*
Y46769D01*
Y46969D01*
Y46869D01*
X6110D01*
X6210Y46969D01*
X5610Y47269D02*
Y47469D01*
Y47369D01*
X6010D01*
Y47269D01*
X5510Y47769D02*
Y48168D01*
X6210Y48368D02*
Y48768D01*
Y48568D01*
X5610D01*
X6010Y48968D02*
X5610Y49368D01*
X5810Y49168D01*
X6010Y49368D01*
X5610Y48968D01*
X18287Y44793D02*
X18887D01*
Y45093D01*
X18787Y45193D01*
X18587D01*
X18487Y45093D01*
Y44793D01*
Y44993D02*
X18287Y45193D01*
X18787Y45393D02*
X18887Y45493D01*
Y45693D01*
X18787Y45793D01*
X18687D01*
X18587Y45693D01*
Y45593D01*
Y45693D01*
X18487Y45793D01*
X18387D01*
X18287Y45693D01*
Y45493D01*
X18387Y45393D01*
Y45993D02*
X18287Y46093D01*
Y46293D01*
X18387Y46393D01*
X18787D01*
X18887Y46293D01*
Y46093D01*
X18787Y45993D01*
X18687D01*
X18587Y46093D01*
Y46393D01*
X16890Y44783D02*
X17490D01*
Y45083D01*
X17390Y45183D01*
X17190D01*
X17090Y45083D01*
Y44783D01*
Y44983D02*
X16890Y45183D01*
Y45683D02*
X17490D01*
X17190Y45383D01*
Y45783D01*
X17390Y45983D02*
X17490Y46083D01*
Y46283D01*
X17390Y46383D01*
X16990D01*
X16890Y46283D01*
Y46083D01*
X16990Y45983D01*
X17390D01*
D84*
X1550Y45324D02*
G03*
X1450Y45224I0J-100D01*
G01*
Y44224D02*
G03*
X1550Y44124I100J0D01*
G01*
X2150D02*
G03*
X2250Y44224I0J100D01*
G01*
Y45224D02*
G03*
X2150Y45324I-100J0D01*
G01*
X6166Y44085D02*
G03*
X6266Y44185I0J100D01*
G01*
Y45185D02*
G03*
X6166Y45285I-100J0D01*
G01*
X5566D02*
G03*
X5466Y45185I0J-100D01*
G01*
Y44185D02*
G03*
X5566Y44085I100J0D01*
G01*
X7810Y45305D02*
G03*
X7710Y45205I0J-100D01*
G01*
Y44205D02*
G03*
X7810Y44105I100J0D01*
G01*
X8410D02*
G03*
X8510Y44205I0J100D01*
G01*
Y45205D02*
G03*
X8410Y45305I-100J0D01*
G01*
X11599Y44124D02*
G03*
X11699Y44224I0J100D01*
G01*
Y45224D02*
G03*
X11599Y45324I-100J0D01*
G01*
X10999D02*
G03*
X10899Y45224I0J-100D01*
G01*
Y44224D02*
G03*
X10999Y44124I100J0D01*
G01*
X29179Y19738D02*
G03*
X29279Y19638I100J0D01*
G01*
X30279D02*
G03*
X30379Y19738I0J100D01*
G01*
Y20338D02*
G03*
X30279Y20438I-100J0D01*
G01*
X29279D02*
G03*
X29179Y20338I0J-100D01*
G01*
X28652Y23000D02*
G03*
X28552Y22900I0J-100D01*
G01*
Y21900D02*
G03*
X28652Y21800I100J0D01*
G01*
X29252D02*
G03*
X29352Y21900I0J100D01*
G01*
Y22900D02*
G03*
X29252Y23000I-100J0D01*
G01*
X2250Y44224D02*
Y45224D01*
X1550Y44124D02*
X2150D01*
X1550Y45324D02*
X2150D01*
X1450Y44224D02*
Y45224D01*
X5466Y44185D02*
Y45185D01*
X5566Y45285D02*
X6166D01*
X5566Y44085D02*
X6166D01*
X6266Y44185D02*
Y45185D01*
X8510Y44205D02*
Y45205D01*
X7810Y44105D02*
X8410D01*
X7810Y45305D02*
X8410D01*
X7710Y44205D02*
Y45205D01*
X10899Y44224D02*
Y45224D01*
X10999Y45324D02*
X11599D01*
X10999Y44124D02*
X11599D01*
X11699Y44224D02*
Y45224D01*
X29279Y20438D02*
X30279D01*
X30379Y19738D02*
Y20338D01*
X29179Y19738D02*
Y20338D01*
X29279Y19638D02*
X30279D01*
X29352Y21900D02*
Y22900D01*
X28652Y21800D02*
X29252D01*
X28652Y23000D02*
X29252D01*
X28552Y21900D02*
Y22900D01*
D193*
X49032Y47008D02*
D03*
M02*
