G04 Layer_Color=16711935*
%FSLAX24Y24*%
%MOIN*%
G70*
G01*
G75*
%ADD90C,0.0000*%
G04:AMPARAMS|DCode=125|XSize=42.9mil|YSize=42.9mil|CornerRadius=8.3mil|HoleSize=0mil|Usage=FLASHONLY|Rotation=270.000|XOffset=0mil|YOffset=0mil|HoleType=Round|Shape=RoundedRectangle|*
%AMROUNDEDRECTD125*
21,1,0.0429,0.0262,0,0,270.0*
21,1,0.0262,0.0429,0,0,270.0*
1,1,0.0166,-0.0131,-0.0131*
1,1,0.0166,-0.0131,0.0131*
1,1,0.0166,0.0131,0.0131*
1,1,0.0166,0.0131,-0.0131*
%
%ADD125ROUNDEDRECTD125*%
G04:AMPARAMS|DCode=126|XSize=42.9mil|YSize=42.9mil|CornerRadius=8.3mil|HoleSize=0mil|Usage=FLASHONLY|Rotation=0.000|XOffset=0mil|YOffset=0mil|HoleType=Round|Shape=RoundedRectangle|*
%AMROUNDEDRECTD126*
21,1,0.0429,0.0262,0,0,0.0*
21,1,0.0262,0.0429,0,0,0.0*
1,1,0.0166,0.0131,-0.0131*
1,1,0.0166,-0.0131,-0.0131*
1,1,0.0166,-0.0131,0.0131*
1,1,0.0166,0.0131,0.0131*
%
%ADD126ROUNDEDRECTD126*%
%ADD131R,0.0630X0.0709*%
%ADD134R,0.0329X0.0579*%
%ADD136R,0.0406X0.0327*%
%ADD139R,0.0327X0.0406*%
%ADD146C,0.2638*%
%ADD147C,0.0669*%
%ADD148R,0.0669X0.0669*%
%ADD149R,0.0669X0.0669*%
%ADD150R,0.0819X0.0819*%
%ADD151C,0.0819*%
%ADD152R,0.1260X0.1260*%
%ADD153R,0.1496X0.1102*%
%ADD154R,0.1079X0.1079*%
%ADD155O,0.0559X0.1039*%
%ADD156C,0.0551*%
%ADD157C,0.0939*%
%ADD158O,0.1279X0.0679*%
%ADD159C,0.0839*%
%ADD160R,0.0839X0.0839*%
%ADD161C,0.0354*%
%ADD162C,0.0492*%
%ADD163R,0.1063X0.1063*%
%ADD164C,0.0551*%
%ADD165R,0.0551X0.0551*%
%ADD166C,0.1444*%
%ADD167C,0.1699*%
%ADD168C,0.0679*%
%ADD169C,0.0748*%
%ADD170C,0.0945*%
%ADD171C,0.0669*%
%ADD172C,0.0472*%
%ADD173C,0.1063*%
%ADD174R,0.0159X0.0329*%
%ADD175R,0.0709X0.0539*%
G04:AMPARAMS|DCode=176|XSize=42.9mil|YSize=42.9mil|CornerRadius=8.3mil|HoleSize=0mil|Usage=FLASHONLY|Rotation=315.000|XOffset=0mil|YOffset=0mil|HoleType=Round|Shape=RoundedRectangle|*
%AMROUNDEDRECTD176*
21,1,0.0429,0.0262,0,0,315.0*
21,1,0.0262,0.0429,0,0,315.0*
1,1,0.0166,0.0000,-0.0186*
1,1,0.0166,-0.0186,0.0000*
1,1,0.0166,0.0000,0.0186*
1,1,0.0166,0.0186,0.0000*
%
%ADD176ROUNDEDRECTD176*%
G04:AMPARAMS|DCode=177|XSize=47.9mil|YSize=62.9mil|CornerRadius=8.9mil|HoleSize=0mil|Usage=FLASHONLY|Rotation=90.000|XOffset=0mil|YOffset=0mil|HoleType=Round|Shape=RoundedRectangle|*
%AMROUNDEDRECTD177*
21,1,0.0479,0.0450,0,0,90.0*
21,1,0.0300,0.0629,0,0,90.0*
1,1,0.0179,0.0225,0.0150*
1,1,0.0179,0.0225,-0.0150*
1,1,0.0179,-0.0225,-0.0150*
1,1,0.0179,-0.0225,0.0150*
%
%ADD177ROUNDEDRECTD177*%
%ADD178R,0.0579X0.0329*%
%ADD179R,0.1260X0.0709*%
%ADD180R,0.2520X0.2362*%
%ADD181R,0.0709X0.0630*%
%ADD182C,0.0295*%
%ADD183C,0.0354*%
%ADD184C,0.0579*%
%ADD185C,0.0630*%
G36*
X27279Y20031D02*
X26619D01*
Y21031D01*
X27279D01*
Y20031D01*
D02*
G37*
D90*
X41493Y1870D02*
G03*
X41493Y1870I-450J0D01*
G01*
X39031Y886D02*
G03*
X39031Y886I-350J0D01*
G01*
X41000D02*
G03*
X41000Y886I-350J0D01*
G01*
X38737Y1870D02*
G03*
X38737Y1870I-450J0D01*
G01*
X46169Y1870D02*
G03*
X46169Y1870I-450J0D01*
G01*
X43706Y886D02*
G03*
X43706Y886I-350J0D01*
G01*
X45675D02*
G03*
X45675Y886I-350J0D01*
G01*
X43413Y1870D02*
G03*
X43413Y1870I-450J0D01*
G01*
X48088D02*
G03*
X48088Y1870I-450J0D01*
G01*
X50350Y886D02*
G03*
X50350Y886I-350J0D01*
G01*
X48381D02*
G03*
X48381Y886I-350J0D01*
G01*
X50844Y1870D02*
G03*
X50844Y1870I-450J0D01*
G01*
D125*
X17520Y46964D02*
D03*
Y47564D02*
D03*
X18307Y46964D02*
D03*
Y47564D02*
D03*
X24409Y46964D02*
D03*
Y47564D02*
D03*
X25295Y46964D02*
D03*
Y47564D02*
D03*
X39630Y20200D02*
D03*
Y19600D02*
D03*
X40320Y19590D02*
D03*
Y20190D02*
D03*
X5542Y32290D02*
D03*
Y31690D02*
D03*
X4164Y30076D02*
D03*
Y30676D02*
D03*
X38563Y13568D02*
D03*
Y12968D02*
D03*
X37874Y13568D02*
D03*
Y12968D02*
D03*
X31747Y18163D02*
D03*
Y18763D02*
D03*
X39252Y12968D02*
D03*
Y13568D02*
D03*
X29843Y12692D02*
D03*
Y13292D02*
D03*
X29700Y15200D02*
D03*
Y14600D02*
D03*
X31747Y14334D02*
D03*
Y13734D02*
D03*
X46772Y42850D02*
D03*
Y43450D02*
D03*
X48878Y42180D02*
D03*
Y42780D02*
D03*
D126*
X9749Y42815D02*
D03*
X9149D02*
D03*
X8469D02*
D03*
X7869D02*
D03*
X15881Y5079D02*
D03*
X16481D02*
D03*
X5221Y40157D02*
D03*
X4621D02*
D03*
X3257Y28215D02*
D03*
X3857D02*
D03*
X43610Y15700D02*
D03*
X44210D02*
D03*
X32377Y15551D02*
D03*
X32977D02*
D03*
X32195Y12499D02*
D03*
X32795D02*
D03*
X14080Y6260D02*
D03*
X13480D02*
D03*
X40690Y14890D02*
D03*
X40090D02*
D03*
X30433Y22085D02*
D03*
X29833D02*
D03*
X32077Y20904D02*
D03*
X32677D02*
D03*
X30630Y11396D02*
D03*
X30030D02*
D03*
X27215Y13306D02*
D03*
X27815D02*
D03*
X35842Y2283D02*
D03*
X36442D02*
D03*
D131*
X31728Y21830D02*
D03*
X32830D02*
D03*
X5148Y33526D02*
D03*
X6250D02*
D03*
X5266Y30770D02*
D03*
X6369D02*
D03*
X27968Y14290D02*
D03*
X26865D02*
D03*
X30271Y21141D02*
D03*
X29168D02*
D03*
D134*
X29459Y20038D02*
D03*
X29779D02*
D03*
X30099D02*
D03*
D136*
X3233Y27622D02*
D03*
Y26717D02*
D03*
X30645Y12558D02*
D03*
Y13463D02*
D03*
D139*
X35866Y45453D02*
D03*
X36772D02*
D03*
X36791Y44567D02*
D03*
X35886D02*
D03*
D146*
X25000Y9449D02*
D03*
X2854Y21240D02*
D03*
X12795Y47539D02*
D03*
X50098Y11713D02*
D03*
X2854Y36280D02*
D03*
X49705Y21240D02*
D03*
X39764Y42520D02*
D03*
D147*
X33780Y5968D02*
D03*
X31680Y25727D02*
D03*
X30680D02*
D03*
X24248Y44016D02*
D03*
X25248D02*
D03*
X26248D02*
D03*
X17358D02*
D03*
X18358D02*
D03*
X19358D02*
D03*
X34843Y4402D02*
D03*
Y3402D02*
D03*
X39827Y18386D02*
D03*
X34843Y41437D02*
D03*
Y42437D02*
D03*
Y43437D02*
D03*
X32843Y41437D02*
D03*
Y42437D02*
D03*
Y43437D02*
D03*
Y45437D02*
D03*
X28937Y35059D02*
D03*
Y36059D02*
D03*
Y37059D02*
D03*
X26937Y35059D02*
D03*
Y36059D02*
D03*
Y37059D02*
D03*
Y39059D02*
D03*
X25689Y35059D02*
D03*
Y36059D02*
D03*
Y37059D02*
D03*
X23689Y35059D02*
D03*
Y36059D02*
D03*
Y37059D02*
D03*
Y39059D02*
D03*
X22472Y35028D02*
D03*
Y36028D02*
D03*
Y37028D02*
D03*
X20472Y35028D02*
D03*
Y36028D02*
D03*
Y37028D02*
D03*
Y39028D02*
D03*
X19193Y35059D02*
D03*
Y36059D02*
D03*
Y37059D02*
D03*
X17193Y35059D02*
D03*
Y36059D02*
D03*
Y37059D02*
D03*
Y39059D02*
D03*
X2535Y39567D02*
D03*
X47575Y44528D02*
D03*
X48575D02*
D03*
X49575D02*
D03*
X47913Y12504D02*
D03*
Y11504D02*
D03*
Y10504D02*
D03*
X35827Y15945D02*
D03*
Y16945D02*
D03*
Y17945D02*
D03*
Y18945D02*
D03*
Y19945D02*
D03*
X30330Y16700D02*
D03*
Y17700D02*
D03*
X47736Y21327D02*
D03*
Y22327D02*
D03*
D148*
X33780Y6969D02*
D03*
X34843Y2402D02*
D03*
X47913Y13504D02*
D03*
X35827Y20945D02*
D03*
X30330Y18700D02*
D03*
X47736Y23327D02*
D03*
D149*
X29680Y25727D02*
D03*
X23248Y44016D02*
D03*
X16358D02*
D03*
X40827Y18386D02*
D03*
X34843Y45437D02*
D03*
X28937Y39059D02*
D03*
X25689Y39059D02*
D03*
X22472Y39028D02*
D03*
X19193Y39059D02*
D03*
X1535Y39567D02*
D03*
X46575Y44528D02*
D03*
D150*
X47992Y35492D02*
D03*
D151*
Y33602D02*
D03*
X35248Y6378D02*
D03*
X36248D02*
D03*
X39165Y5413D02*
D03*
X40165D02*
D03*
X30799Y6102D02*
D03*
X31799D02*
D03*
X20760D02*
D03*
X21760D02*
D03*
X15732D02*
D03*
X16732D02*
D03*
X25878D02*
D03*
X26878D02*
D03*
X43890Y4331D02*
D03*
X44890D02*
D03*
X48516Y7087D02*
D03*
X49516D02*
D03*
X48516Y4331D02*
D03*
X49516D02*
D03*
X8594Y41538D02*
D03*
X9594D02*
D03*
X10594D02*
D03*
X11594D02*
D03*
X12594D02*
D03*
X13594D02*
D03*
X44713Y10693D02*
D03*
X43713D02*
D03*
X44713Y11693D02*
D03*
X43713D02*
D03*
X44713Y12693D02*
D03*
X43713D02*
D03*
X33071Y8563D02*
D03*
X45472Y23335D02*
D03*
X44722Y22835D02*
D03*
X45472Y22335D02*
D03*
X45866Y19185D02*
D03*
X46616Y19685D02*
D03*
X45866Y20185D02*
D03*
X2862Y33071D02*
D03*
X2362Y33821D02*
D03*
X1862Y33071D02*
D03*
D152*
X7579Y27598D02*
D03*
X13091D02*
D03*
D153*
X9724Y17362D02*
D03*
X2480D02*
D03*
D154*
X6102Y5354D02*
D03*
X8071Y1417D02*
D03*
X6102D02*
D03*
X4134D02*
D03*
X4134Y5354D02*
D03*
X8071D02*
D03*
D155*
X35728Y875D02*
D03*
X36712D02*
D03*
X34744D02*
D03*
D156*
X26220Y3386D02*
D03*
X28189Y1417D02*
D03*
Y433D02*
D03*
X24252D02*
D03*
Y1417D02*
D03*
X21122Y3386D02*
D03*
X23091Y1417D02*
D03*
Y433D02*
D03*
X19154D02*
D03*
Y1417D02*
D03*
X16024Y3386D02*
D03*
X17992Y1417D02*
D03*
Y433D02*
D03*
X14055D02*
D03*
Y1417D02*
D03*
X31004Y47835D02*
D03*
X29035Y49803D02*
D03*
Y50787D02*
D03*
X32972D02*
D03*
Y49803D02*
D03*
X37303Y47835D02*
D03*
X35335Y49803D02*
D03*
Y50787D02*
D03*
X39272D02*
D03*
Y49803D02*
D03*
D157*
X28189Y3386D02*
D03*
X27205D02*
D03*
X24252D02*
D03*
X25236D02*
D03*
X26220Y1417D02*
D03*
X23091Y3386D02*
D03*
X22106D02*
D03*
X19154D02*
D03*
X20138D02*
D03*
X21122Y1417D02*
D03*
X17992Y3386D02*
D03*
X17008D02*
D03*
X14055D02*
D03*
X15039D02*
D03*
X16024Y1417D02*
D03*
X29035Y47835D02*
D03*
X30020D02*
D03*
X32972D02*
D03*
X31988D02*
D03*
X31004Y49803D02*
D03*
X35335Y47835D02*
D03*
X36319D02*
D03*
X39272D02*
D03*
X38287D02*
D03*
X37303Y49803D02*
D03*
D158*
X44390Y27181D02*
D03*
Y26181D02*
D03*
Y25181D02*
D03*
X47441D02*
D03*
Y26181D02*
D03*
Y27181D02*
D03*
D159*
X42323Y43858D02*
D03*
X42362Y39587D02*
D03*
X47165Y39547D02*
D03*
D160*
X44291Y43858D02*
D03*
X44331Y39587D02*
D03*
X49134Y39547D02*
D03*
D161*
X47165Y49508D02*
D03*
X48701D02*
D03*
D162*
X46634Y49154D02*
D03*
X49232D02*
D03*
D163*
X49350Y50256D02*
D03*
X46516D02*
D03*
D164*
X5333Y41269D02*
D03*
X2333D02*
D03*
X3333D02*
D03*
X4333D02*
D03*
Y42269D02*
D03*
X3333D02*
D03*
D165*
X5333D02*
D03*
X2333D02*
D03*
D166*
X15328Y47524D02*
D03*
X20498D02*
D03*
X22317D02*
D03*
X27487D02*
D03*
D167*
X43406Y46997D02*
D03*
X43396Y49879D02*
D03*
X41925Y48248D02*
D03*
D168*
X32299Y3407D02*
D03*
X31299D02*
D03*
X30299D02*
D03*
D169*
X40650Y886D02*
D03*
X38681D02*
D03*
X45325D02*
D03*
X43356D02*
D03*
X48031D02*
D03*
X50000D02*
D03*
D170*
X41043Y1870D02*
D03*
X38287D02*
D03*
X45719D02*
D03*
X42963D02*
D03*
X47638D02*
D03*
X50394D02*
D03*
D171*
X48936Y31499D02*
D03*
X47936D02*
D03*
X43936D02*
D03*
X40936D02*
D03*
D172*
X24114Y9449D02*
D03*
X25000Y10335D02*
D03*
X25886Y9449D02*
D03*
X25000Y8563D02*
D03*
X24409Y8858D02*
D03*
Y10039D02*
D03*
X25591D02*
D03*
Y8858D02*
D03*
X3445Y20650D02*
D03*
Y21831D02*
D03*
X2264D02*
D03*
Y20650D02*
D03*
X2854Y20354D02*
D03*
X3740Y21240D02*
D03*
X2854Y22126D02*
D03*
X1969Y21240D02*
D03*
X11909Y47539D02*
D03*
X12795Y48425D02*
D03*
X13681Y47539D02*
D03*
X12795Y46654D02*
D03*
X12205Y46949D02*
D03*
Y48130D02*
D03*
X13386D02*
D03*
Y46949D02*
D03*
X49508Y11122D02*
D03*
X50689D02*
D03*
Y12303D02*
D03*
X49508D02*
D03*
X49213Y11713D02*
D03*
X50098Y10827D02*
D03*
X50984Y11713D02*
D03*
X50098Y12598D02*
D03*
X2854Y37165D02*
D03*
X3740Y36280D02*
D03*
X2854Y35394D02*
D03*
X1969Y36280D02*
D03*
X2264Y36870D02*
D03*
X3445D02*
D03*
Y35689D02*
D03*
X2264D02*
D03*
X49114Y20650D02*
D03*
X50295D02*
D03*
Y21831D02*
D03*
X49114D02*
D03*
X48819Y21240D02*
D03*
X49705Y20354D02*
D03*
X50591Y21240D02*
D03*
X49705Y22126D02*
D03*
X39764Y43406D02*
D03*
X40650Y42520D02*
D03*
X39764Y41634D02*
D03*
X38878Y42520D02*
D03*
X39173Y43110D02*
D03*
X40354D02*
D03*
Y41929D02*
D03*
X39173D02*
D03*
D173*
X32799Y1907D02*
D03*
X29799D02*
D03*
D174*
X26949Y20531D02*
D03*
D175*
Y20231D02*
D03*
Y20831D02*
D03*
D176*
X33351Y27968D02*
D03*
X33775Y27544D02*
D03*
X35448Y25871D02*
D03*
X35024Y26295D02*
D03*
D177*
X2983Y31170D02*
D03*
Y30370D02*
D03*
D178*
X1850Y45044D02*
D03*
Y44724D02*
D03*
Y44404D02*
D03*
X5866Y44365D02*
D03*
Y44685D02*
D03*
Y45005D02*
D03*
X8110Y45025D02*
D03*
Y44705D02*
D03*
Y44385D02*
D03*
X11299Y44404D02*
D03*
Y44724D02*
D03*
Y45044D02*
D03*
X28952Y22720D02*
D03*
Y22400D02*
D03*
Y22080D02*
D03*
D179*
X49882Y47905D02*
D03*
Y46110D02*
D03*
D180*
X47055Y47008D02*
D03*
D181*
X32712Y14585D02*
D03*
Y13483D02*
D03*
X32692Y17558D02*
D03*
Y18660D02*
D03*
D182*
X43240Y16790D02*
D03*
X45340Y16360D02*
D03*
X29710Y12280D02*
D03*
X47480Y47963D02*
D03*
X46093Y47362D02*
D03*
X46004Y46004D02*
D03*
X47461Y46594D02*
D03*
X48100Y46654D02*
D03*
X47490Y47441D02*
D03*
X47451Y42431D02*
D03*
X22382Y41339D02*
D03*
X27569Y40994D02*
D03*
X24488D02*
D03*
D183*
X29330Y14210D02*
D03*
X32760Y18090D02*
D03*
X35443Y15118D02*
D03*
X38829Y14055D02*
D03*
X39872Y16181D02*
D03*
X43617Y16049D02*
D03*
X39542Y14252D02*
D03*
X33740Y28406D02*
D03*
X37953Y12333D02*
D03*
X29879Y19499D02*
D03*
X7444Y32638D02*
D03*
X6663Y32844D02*
D03*
X7884Y43858D02*
D03*
X40000Y20694D02*
D03*
X39350Y12441D02*
D03*
X2589Y29045D02*
D03*
X39695Y15453D02*
D03*
X50000Y37402D02*
D03*
X49606D02*
D03*
X36298Y26476D02*
D03*
X33563Y13091D02*
D03*
X34646Y23819D02*
D03*
X34350Y18209D02*
D03*
X41240Y10335D02*
D03*
X40846Y9941D02*
D03*
X40256Y9646D02*
D03*
X39370Y9055D02*
D03*
X32087Y43701D02*
D03*
X15868Y38589D02*
D03*
X13091Y36220D02*
D03*
X12106Y34252D02*
D03*
X18386Y8504D02*
D03*
X31181Y40197D02*
D03*
X24508Y46585D02*
D03*
X3701Y31362D02*
D03*
X5851Y30022D02*
D03*
X3931Y28565D02*
D03*
X35669Y37480D02*
D03*
X23543Y46811D02*
D03*
X29764Y41575D02*
D03*
X27598Y41496D02*
D03*
X26417Y41460D02*
D03*
X24685Y30787D02*
D03*
X21339D02*
D03*
X25709Y32677D02*
D03*
X8425Y14449D02*
D03*
X3740Y26732D02*
D03*
X18818Y46453D02*
D03*
X17458Y46605D02*
D03*
X6998Y30770D02*
D03*
X6138Y33059D02*
D03*
X17638Y31859D02*
D03*
X47308Y14369D02*
D03*
X38284Y13978D02*
D03*
X46200Y9790D02*
D03*
X33648Y28979D02*
D03*
X36978Y18419D02*
D03*
X4258Y31029D02*
D03*
X48917Y46961D02*
D03*
X31297Y12367D02*
D03*
X31481Y15491D02*
D03*
X28658Y22400D02*
D03*
X34408Y15109D02*
D03*
X35995Y25211D02*
D03*
X34252Y27106D02*
D03*
X36712Y2004D02*
D03*
X48839Y41555D02*
D03*
X5478Y32739D02*
D03*
X37798Y15929D02*
D03*
X29754Y23448D02*
D03*
X28986Y19369D02*
D03*
X25238Y46605D02*
D03*
X35433Y23031D02*
D03*
X37653Y17639D02*
D03*
X44958Y40759D02*
D03*
X3557Y29469D02*
D03*
X37548Y11399D02*
D03*
X36988Y12129D02*
D03*
X36696Y15846D02*
D03*
X18078Y16110D02*
D03*
X9718Y20519D02*
D03*
X11448Y44299D02*
D03*
X4892Y45748D02*
D03*
X35261Y14272D02*
D03*
X36528Y11849D02*
D03*
X28162Y10579D02*
D03*
X34008Y16226D02*
D03*
X33108Y20473D02*
D03*
X10518Y19239D02*
D03*
X34588Y15899D02*
D03*
X42898Y15768D02*
D03*
X41235Y14902D02*
D03*
X27837Y12684D02*
D03*
X36102Y14724D02*
D03*
X33386Y25984D02*
D03*
X31850Y23923D02*
D03*
X3548Y44404D02*
D03*
X16457Y33583D02*
D03*
X18110Y14173D02*
D03*
X21417Y33228D02*
D03*
X22913Y4449D02*
D03*
X26850Y4764D02*
D03*
X22835Y32638D02*
D03*
X19252Y14764D02*
D03*
X18661Y14921D02*
D03*
X38898Y10551D02*
D03*
X37953Y11890D02*
D03*
X33622Y12520D02*
D03*
X5039Y32283D02*
D03*
X10315Y34606D02*
D03*
X36496Y33307D02*
D03*
X36457Y23465D02*
D03*
X38228Y21417D02*
D03*
X30157Y14134D02*
D03*
X38819Y16218D02*
D03*
X28465Y13425D02*
D03*
X29291D02*
D03*
X31339Y13386D02*
D03*
X31220Y14528D02*
D03*
X28543Y14488D02*
D03*
X31575Y20472D02*
D03*
X31020Y21120D02*
D03*
X7283Y31890D02*
D03*
X42717Y3051D02*
D03*
X46752Y9449D02*
D03*
X1181Y27559D02*
D03*
X39370Y29528D02*
D03*
X39764D02*
D03*
X40157D02*
D03*
X40551D02*
D03*
X40945D02*
D03*
X41339D02*
D03*
X41732D02*
D03*
X42126D02*
D03*
X42520D02*
D03*
X42913D02*
D03*
X43307D02*
D03*
X43701D02*
D03*
X44094D02*
D03*
X44882D02*
D03*
X44488D02*
D03*
X45276D02*
D03*
X45669D02*
D03*
X46063D02*
D03*
X46457D02*
D03*
X46850D02*
D03*
X47244D02*
D03*
X47638D02*
D03*
X48032D02*
D03*
X48425D02*
D03*
X49213D02*
D03*
X48819D02*
D03*
X38976D02*
D03*
Y29921D02*
D03*
Y30315D02*
D03*
Y30709D02*
D03*
Y31102D02*
D03*
Y31496D02*
D03*
Y31890D02*
D03*
Y32283D02*
D03*
Y32677D02*
D03*
Y33071D02*
D03*
Y33465D02*
D03*
Y33858D02*
D03*
Y34252D02*
D03*
Y34646D02*
D03*
Y35039D02*
D03*
Y35433D02*
D03*
Y35827D02*
D03*
X40945Y37402D02*
D03*
X40551D02*
D03*
X41339D02*
D03*
X41732D02*
D03*
X42126D02*
D03*
X42520D02*
D03*
X42913D02*
D03*
X43307D02*
D03*
X43701D02*
D03*
X44094D02*
D03*
X46063D02*
D03*
X46457D02*
D03*
X46850D02*
D03*
X47244D02*
D03*
X47638D02*
D03*
X48032D02*
D03*
X48425D02*
D03*
X48819D02*
D03*
X49213D02*
D03*
X51181Y35827D02*
D03*
Y35433D02*
D03*
Y35039D02*
D03*
Y34646D02*
D03*
Y34252D02*
D03*
Y33858D02*
D03*
Y33465D02*
D03*
Y33071D02*
D03*
Y32677D02*
D03*
Y32283D02*
D03*
Y31890D02*
D03*
Y31496D02*
D03*
Y31102D02*
D03*
Y30709D02*
D03*
Y30315D02*
D03*
Y29921D02*
D03*
Y29528D02*
D03*
X38976Y36220D02*
D03*
Y36614D02*
D03*
Y37008D02*
D03*
Y37402D02*
D03*
X39370D02*
D03*
X39764D02*
D03*
X40157D02*
D03*
X44488D02*
D03*
X44882D02*
D03*
X45276D02*
D03*
X45669D02*
D03*
X50394D02*
D03*
X50787D02*
D03*
X51181D02*
D03*
Y37008D02*
D03*
Y36614D02*
D03*
Y36220D02*
D03*
X30020Y11024D02*
D03*
X50984Y8858D02*
D03*
X48917Y14370D02*
D03*
X413Y8445D02*
D03*
X364Y1476D02*
D03*
X1614Y276D02*
D03*
X12697Y325D02*
D03*
X28661Y896D02*
D03*
X5374Y3307D02*
D03*
X7106Y6211D02*
D03*
X9350Y5817D02*
D03*
X10069Y5207D02*
D03*
X11309Y5394D02*
D03*
X16772Y7618D02*
D03*
X15502Y9252D02*
D03*
X13868Y9006D02*
D03*
X12795Y8957D02*
D03*
X11614Y8730D02*
D03*
X9528Y8415D02*
D03*
X10787Y13917D02*
D03*
Y15965D02*
D03*
X10837Y18888D02*
D03*
X10827Y19902D02*
D03*
X10659Y21644D02*
D03*
X10640Y29272D02*
D03*
X10738Y30709D02*
D03*
X10709Y32333D02*
D03*
X10689Y35463D02*
D03*
X10659Y38022D02*
D03*
X15128Y43071D02*
D03*
X15994Y43081D02*
D03*
X18189Y38986D02*
D03*
X21417Y38996D02*
D03*
X24705Y39035D02*
D03*
X27913Y39006D02*
D03*
X26378Y42835D02*
D03*
X27343Y43327D02*
D03*
X28445Y44518D02*
D03*
X36900Y40138D02*
D03*
X35669Y35935D02*
D03*
X30797Y28563D02*
D03*
X31890Y29281D02*
D03*
X32815Y29902D02*
D03*
X35226Y29872D02*
D03*
X37185Y29882D02*
D03*
X24390Y19252D02*
D03*
X24459Y16929D02*
D03*
X24646Y15276D02*
D03*
X23661Y13937D02*
D03*
X24675Y7589D02*
D03*
X18504Y37037D02*
D03*
X18563Y36024D02*
D03*
X21427Y35994D02*
D03*
X21457Y36988D02*
D03*
X24311Y36939D02*
D03*
X25039Y36978D02*
D03*
X24311Y36024D02*
D03*
X9449Y19291D02*
D03*
Y30709D02*
D03*
X394Y9843D02*
D03*
X7087Y18898D02*
D03*
X29921Y394D02*
D03*
X51575D02*
D03*
Y2362D02*
D03*
X50787Y50787D02*
D03*
X51575Y38189D02*
D03*
X37008Y27953D02*
D03*
X40157Y28740D02*
D03*
X25984Y19685D02*
D03*
X28346D02*
D03*
X25591Y17717D02*
D03*
X27165Y9055D02*
D03*
X39764Y44882D02*
D03*
X1575Y37402D02*
D03*
X4724Y36220D02*
D03*
X16831Y43012D02*
D03*
X21909Y42913D02*
D03*
X23110Y43041D02*
D03*
X29528Y11713D02*
D03*
X31201Y11417D02*
D03*
X26280Y14272D02*
D03*
X5807Y38484D02*
D03*
X5610Y35531D02*
D03*
X35630Y28839D02*
D03*
X32874Y26772D02*
D03*
X25886Y13976D02*
D03*
X28248Y5709D02*
D03*
X35335Y26378D02*
D03*
X31043Y13848D02*
D03*
X46250Y42854D02*
D03*
X32037Y20413D02*
D03*
D184*
X30709Y39469D02*
D03*
X36319Y39173D02*
D03*
X36339Y13386D02*
D03*
X38307Y15197D02*
D03*
X36772Y7717D02*
D03*
X28465Y11535D02*
D03*
X37638Y20984D02*
D03*
X33957Y19587D02*
D03*
X34646Y8858D02*
D03*
X51693Y49331D02*
D03*
X16634Y50591D02*
D03*
X14646Y44646D02*
D03*
X492Y45669D02*
D03*
X1260Y30433D02*
D03*
X37323Y8543D02*
D03*
D185*
X28091Y39587D02*
D03*
X42136Y38465D02*
D03*
M02*
