G04 Layer_Color=128*
%FSLAX24Y24*%
%MOIN*%
G70*
G01*
G75*
%ADD98R,0.0670X0.0790*%
G04:AMPARAMS|DCode=100|XSize=50.7mil|YSize=50.7mil|CornerRadius=12.2mil|HoleSize=0mil|Usage=FLASHONLY|Rotation=270.000|XOffset=0mil|YOffset=0mil|HoleType=Round|Shape=RoundedRectangle|*
%AMROUNDEDRECTD100*
21,1,0.0507,0.0262,0,0,270.0*
21,1,0.0262,0.0507,0,0,270.0*
1,1,0.0245,-0.0131,-0.0131*
1,1,0.0245,-0.0131,0.0131*
1,1,0.0245,0.0131,0.0131*
1,1,0.0245,0.0131,-0.0131*
%
%ADD100ROUNDEDRECTD100*%
G04:AMPARAMS|DCode=101|XSize=50.7mil|YSize=50.7mil|CornerRadius=12.2mil|HoleSize=0mil|Usage=FLASHONLY|Rotation=0.000|XOffset=0mil|YOffset=0mil|HoleType=Round|Shape=RoundedRectangle|*
%AMROUNDEDRECTD101*
21,1,0.0507,0.0262,0,0,0.0*
21,1,0.0262,0.0507,0,0,0.0*
1,1,0.0245,0.0131,-0.0131*
1,1,0.0245,-0.0131,-0.0131*
1,1,0.0245,-0.0131,0.0131*
1,1,0.0245,0.0131,0.0131*
%
%ADD101ROUNDEDRECTD101*%
%ADD106R,0.0709X0.0787*%
%ADD109R,0.0407X0.0657*%
%ADD111R,0.0484X0.0405*%
%ADD115R,0.0405X0.0484*%
%ADD186R,0.0790X0.0670*%
G04:AMPARAMS|DCode=187|XSize=50.7mil|YSize=50.7mil|CornerRadius=12.2mil|HoleSize=0mil|Usage=FLASHONLY|Rotation=315.000|XOffset=0mil|YOffset=0mil|HoleType=Round|Shape=RoundedRectangle|*
%AMROUNDEDRECTD187*
21,1,0.0507,0.0262,0,0,315.0*
21,1,0.0262,0.0507,0,0,315.0*
1,1,0.0245,0.0000,-0.0186*
1,1,0.0245,-0.0186,0.0000*
1,1,0.0245,0.0000,0.0186*
1,1,0.0245,0.0186,0.0000*
%
%ADD187ROUNDEDRECTD187*%
G04:AMPARAMS|DCode=188|XSize=55.7mil|YSize=70.7mil|CornerRadius=12.9mil|HoleSize=0mil|Usage=FLASHONLY|Rotation=90.000|XOffset=0mil|YOffset=0mil|HoleType=Round|Shape=RoundedRectangle|*
%AMROUNDEDRECTD188*
21,1,0.0557,0.0450,0,0,90.0*
21,1,0.0300,0.0707,0,0,90.0*
1,1,0.0257,0.0225,0.0150*
1,1,0.0257,0.0225,-0.0150*
1,1,0.0257,-0.0225,-0.0150*
1,1,0.0257,-0.0225,0.0150*
%
%ADD188ROUNDEDRECTD188*%
%ADD189R,0.0657X0.0407*%
%ADD190R,0.1339X0.0787*%
%ADD191R,0.2598X0.2441*%
%ADD192R,0.0787X0.0709*%
D98*
X29554Y20033D02*
D03*
D100*
X17520Y46964D02*
D03*
Y47564D02*
D03*
X18307Y46964D02*
D03*
Y47564D02*
D03*
X24409Y46964D02*
D03*
Y47564D02*
D03*
X25295Y46964D02*
D03*
Y47564D02*
D03*
X39630Y20200D02*
D03*
Y19600D02*
D03*
X40320Y19590D02*
D03*
Y20190D02*
D03*
X5542Y32290D02*
D03*
Y31690D02*
D03*
X4164Y30076D02*
D03*
Y30676D02*
D03*
X38563Y13568D02*
D03*
Y12968D02*
D03*
X37874Y13568D02*
D03*
Y12968D02*
D03*
X31747Y18163D02*
D03*
Y18763D02*
D03*
X39252Y12968D02*
D03*
Y13568D02*
D03*
X29843Y12692D02*
D03*
Y13292D02*
D03*
X29700Y15200D02*
D03*
Y14600D02*
D03*
X31747Y14334D02*
D03*
Y13734D02*
D03*
X46772Y42850D02*
D03*
Y43450D02*
D03*
X48878Y42180D02*
D03*
Y42780D02*
D03*
D101*
X9749Y42815D02*
D03*
X9149D02*
D03*
X8469D02*
D03*
X7869D02*
D03*
X15881Y5079D02*
D03*
X16481D02*
D03*
X5221Y40157D02*
D03*
X4621D02*
D03*
X3257Y28215D02*
D03*
X3857D02*
D03*
X43610Y15700D02*
D03*
X44210D02*
D03*
X32377Y15551D02*
D03*
X32977D02*
D03*
X32195Y12499D02*
D03*
X32795D02*
D03*
X14080Y6260D02*
D03*
X13480D02*
D03*
X40690Y14890D02*
D03*
X40090D02*
D03*
X30433Y22085D02*
D03*
X29833D02*
D03*
X32077Y20904D02*
D03*
X32677D02*
D03*
X30630Y11396D02*
D03*
X30030D02*
D03*
X27215Y13306D02*
D03*
X27815D02*
D03*
X35842Y2283D02*
D03*
X36442D02*
D03*
D106*
X31728Y21830D02*
D03*
X32830D02*
D03*
X5148Y33526D02*
D03*
X6250D02*
D03*
X5266Y30770D02*
D03*
X6369D02*
D03*
X27968Y14290D02*
D03*
X26865D02*
D03*
X30271Y21141D02*
D03*
X29168D02*
D03*
D109*
X29459Y20038D02*
D03*
X29779D02*
D03*
X30099D02*
D03*
D111*
X3233Y27622D02*
D03*
Y26717D02*
D03*
X30645Y12558D02*
D03*
Y13463D02*
D03*
D115*
X35866Y45453D02*
D03*
X36772D02*
D03*
X36791Y44567D02*
D03*
X35886D02*
D03*
D186*
X1845Y44949D02*
D03*
X5871Y44460D02*
D03*
X8105Y44930D02*
D03*
X11304Y44499D02*
D03*
X28947Y22625D02*
D03*
D187*
X33351Y27968D02*
D03*
X33775Y27544D02*
D03*
X35448Y25871D02*
D03*
X35024Y26295D02*
D03*
D188*
X2983Y31170D02*
D03*
Y30370D02*
D03*
D189*
X1850Y45044D02*
D03*
Y44724D02*
D03*
Y44404D02*
D03*
X5866Y44365D02*
D03*
Y44685D02*
D03*
Y45005D02*
D03*
X8110Y45025D02*
D03*
Y44705D02*
D03*
Y44385D02*
D03*
X11299Y44404D02*
D03*
Y44724D02*
D03*
Y45044D02*
D03*
X28952Y22720D02*
D03*
Y22400D02*
D03*
Y22080D02*
D03*
D190*
X49882Y47905D02*
D03*
Y46110D02*
D03*
D191*
X47055Y47008D02*
D03*
D192*
X32712Y14585D02*
D03*
Y13483D02*
D03*
X32692Y17558D02*
D03*
Y18660D02*
D03*
M02*
