G04 Layer_Color=8421504*
%FSLAX24Y24*%
%MOIN*%
G70*
G01*
G75*
%ADD98R,0.0670X0.0790*%
%ADD99R,0.0984X0.0984*%
G04:AMPARAMS|DCode=100|XSize=50.7mil|YSize=50.7mil|CornerRadius=12.2mil|HoleSize=0mil|Usage=FLASHONLY|Rotation=270.000|XOffset=0mil|YOffset=0mil|HoleType=Round|Shape=RoundedRectangle|*
%AMROUNDEDRECTD100*
21,1,0.0507,0.0262,0,0,270.0*
21,1,0.0262,0.0507,0,0,270.0*
1,1,0.0245,-0.0131,-0.0131*
1,1,0.0245,-0.0131,0.0131*
1,1,0.0245,0.0131,0.0131*
1,1,0.0245,0.0131,-0.0131*
%
%ADD100ROUNDEDRECTD100*%
G04:AMPARAMS|DCode=101|XSize=50.7mil|YSize=50.7mil|CornerRadius=12.2mil|HoleSize=0mil|Usage=FLASHONLY|Rotation=0.000|XOffset=0mil|YOffset=0mil|HoleType=Round|Shape=RoundedRectangle|*
%AMROUNDEDRECTD101*
21,1,0.0507,0.0262,0,0,0.0*
21,1,0.0262,0.0507,0,0,0.0*
1,1,0.0245,0.0131,-0.0131*
1,1,0.0245,-0.0131,-0.0131*
1,1,0.0245,-0.0131,0.0131*
1,1,0.0245,0.0131,0.0131*
%
%ADD101ROUNDEDRECTD101*%
G04:AMPARAMS|DCode=102|XSize=55.7mil|YSize=70.7mil|CornerRadius=12.9mil|HoleSize=0mil|Usage=FLASHONLY|Rotation=180.000|XOffset=0mil|YOffset=0mil|HoleType=Round|Shape=RoundedRectangle|*
%AMROUNDEDRECTD102*
21,1,0.0557,0.0450,0,0,180.0*
21,1,0.0300,0.0707,0,0,180.0*
1,1,0.0257,-0.0150,0.0225*
1,1,0.0257,0.0150,0.0225*
1,1,0.0257,0.0150,-0.0225*
1,1,0.0257,-0.0150,-0.0225*
%
%ADD102ROUNDEDRECTD102*%
%ADD103R,0.0377X0.0657*%
%ADD104R,0.0657X0.0377*%
%ADD105R,0.0968X0.0657*%
%ADD106R,0.0709X0.0787*%
%ADD107R,0.0315X0.0551*%
%ADD108R,0.0630X0.0374*%
%ADD109R,0.0407X0.0657*%
%ADD110R,0.0757X0.0457*%
%ADD111R,0.0484X0.0405*%
%ADD112R,0.0866X0.0787*%
%ADD113R,0.0551X0.0945*%
%ADD114R,0.0315X0.0689*%
%ADD115R,0.0405X0.0484*%
%ADD116R,0.0512X0.1339*%
%ADD117R,0.0472X0.0512*%
%ADD118R,0.0295X0.0630*%
%ADD119R,0.0787X0.0866*%
%ADD120O,0.0827X0.0323*%
%ADD121R,0.0827X0.0323*%
G36*
X46850Y49154D02*
D01*
Y49154D01*
Y49154D01*
D02*
G37*
G36*
X46744Y49341D02*
X46810Y49280D01*
X46848Y49199D01*
X46850Y49154D01*
X46848Y49109D01*
X46810Y49027D01*
X46744Y48966D01*
X46659Y48935D01*
X46614Y48937D01*
X46181D01*
X46136Y48935D01*
X46051Y48966D01*
X45985Y49027D01*
X45947Y49109D01*
X45945Y49154D01*
X45947Y49199D01*
X45985Y49280D01*
X46051Y49341D01*
X46136Y49372D01*
X46181Y49370D01*
X46614Y49370D01*
Y49370D01*
X46659Y49372D01*
X46744Y49341D01*
D02*
G37*
G36*
X49815D02*
X49881Y49280D01*
X49919Y49199D01*
X49921Y49154D01*
Y49154D01*
Y49154D01*
D01*
X49919Y49109D01*
X49881Y49027D01*
X49815Y48966D01*
X49730Y48935D01*
X49685Y48937D01*
X49252D01*
X49207Y48935D01*
X49122Y48966D01*
X49056Y49027D01*
X49018Y49109D01*
X49016Y49154D01*
X49018Y49199D01*
X49056Y49280D01*
X49122Y49341D01*
X49207Y49372D01*
X49252Y49370D01*
X49685Y49370D01*
Y49370D01*
X49730Y49372D01*
X49815Y49341D01*
D02*
G37*
D98*
X28417Y9257D02*
D03*
D99*
X46516Y50256D02*
D03*
X49350D02*
D03*
D100*
X38091Y9060D02*
D03*
Y8460D02*
D03*
X21299Y40772D02*
D03*
Y40172D02*
D03*
X20374Y40772D02*
D03*
Y40172D02*
D03*
X30787Y8568D02*
D03*
Y7968D02*
D03*
X50098Y30418D02*
D03*
Y29818D02*
D03*
X40315Y20182D02*
D03*
Y19582D02*
D03*
X39626D02*
D03*
Y20182D02*
D03*
X30212Y22848D02*
D03*
Y23448D02*
D03*
X31235Y22848D02*
D03*
Y23448D02*
D03*
X44685Y19877D02*
D03*
Y20477D02*
D03*
X43799D02*
D03*
Y19877D02*
D03*
X41831Y27072D02*
D03*
Y26472D02*
D03*
X43799Y21855D02*
D03*
Y21255D02*
D03*
X41831Y25792D02*
D03*
Y25192D02*
D03*
X41043D02*
D03*
Y25792D02*
D03*
X2504Y26791D02*
D03*
Y27391D02*
D03*
X1815D02*
D03*
Y26791D02*
D03*
X46949Y4631D02*
D03*
Y4031D02*
D03*
X29995Y11372D02*
D03*
Y11972D02*
D03*
X36417Y2298D02*
D03*
Y2898D02*
D03*
X29528Y5015D02*
D03*
Y5615D02*
D03*
X30684Y11372D02*
D03*
Y11972D02*
D03*
X35448Y26805D02*
D03*
Y27405D02*
D03*
X34661Y26805D02*
D03*
Y27405D02*
D03*
X47933Y47141D02*
D03*
Y47741D02*
D03*
X47047Y47141D02*
D03*
Y47741D02*
D03*
D101*
X44188Y6988D02*
D03*
X44788D02*
D03*
X38253Y18071D02*
D03*
X37653D02*
D03*
X6157Y31616D02*
D03*
X5557D02*
D03*
X42298Y16437D02*
D03*
X42898D02*
D03*
X49316Y8858D02*
D03*
X48716D02*
D03*
X43617Y15709D02*
D03*
X44217D02*
D03*
X47141Y46161D02*
D03*
X47741D02*
D03*
X49454Y42047D02*
D03*
X48854D02*
D03*
X38253Y18780D02*
D03*
X37653D02*
D03*
X5557Y32305D02*
D03*
X6157D02*
D03*
X42898Y17126D02*
D03*
X42298D02*
D03*
X30177Y24349D02*
D03*
X29577D02*
D03*
X31250D02*
D03*
X31850D02*
D03*
X31644Y18641D02*
D03*
X32244D02*
D03*
X44217Y16398D02*
D03*
X43617D02*
D03*
X49454Y42835D02*
D03*
X48854D02*
D03*
X39267Y2953D02*
D03*
X39867D02*
D03*
X39267Y3657D02*
D03*
X39867D02*
D03*
D102*
X32824Y24054D02*
D03*
X33624D02*
D03*
X33611Y23070D02*
D03*
X34411D02*
D03*
D103*
X37874Y16749D02*
D03*
X38189D02*
D03*
X38504D02*
D03*
X38819D02*
D03*
X39134D02*
D03*
X39449D02*
D03*
X39764D02*
D03*
X40079D02*
D03*
Y13369D02*
D03*
X39764D02*
D03*
X39449D02*
D03*
X39134D02*
D03*
X38819D02*
D03*
X38504D02*
D03*
X38189D02*
D03*
X37874D02*
D03*
D104*
X40666Y16161D02*
D03*
Y15846D02*
D03*
Y15531D02*
D03*
Y15217D02*
D03*
Y14902D02*
D03*
Y14587D02*
D03*
Y14272D02*
D03*
Y13957D02*
D03*
X37286D02*
D03*
Y14272D02*
D03*
Y14587D02*
D03*
Y14902D02*
D03*
Y15217D02*
D03*
Y15531D02*
D03*
Y15846D02*
D03*
Y16161D02*
D03*
D105*
X2924Y31362D02*
D03*
Y29980D02*
D03*
X28445Y6498D02*
D03*
Y5116D02*
D03*
D106*
X32692Y17558D02*
D03*
X31590D02*
D03*
D107*
X29975Y21962D02*
D03*
X30235D02*
D03*
X30495Y21965D02*
D03*
X30755Y21962D02*
D03*
X31015D02*
D03*
X31275D02*
D03*
X31535D02*
D03*
X31795D02*
D03*
X32055D02*
D03*
X32315D02*
D03*
Y19662D02*
D03*
X32055D02*
D03*
X31795D02*
D03*
X31535D02*
D03*
X31275D02*
D03*
X31015D02*
D03*
X30755D02*
D03*
X30495Y19660D02*
D03*
X30235Y19662D02*
D03*
X29975D02*
D03*
D108*
X34582Y25963D02*
D03*
Y25589D02*
D03*
Y25215D02*
D03*
X35606D02*
D03*
Y25963D02*
D03*
X47776Y42067D02*
D03*
Y42441D02*
D03*
Y42815D02*
D03*
X46752D02*
D03*
Y42067D02*
D03*
X5168Y30022D02*
D03*
Y30396D02*
D03*
Y30770D02*
D03*
X4144D02*
D03*
Y30022D02*
D03*
D109*
X28322Y9252D02*
D03*
X28642D02*
D03*
X28962D02*
D03*
D110*
X46144Y18073D02*
D03*
X48344D02*
D03*
X46144Y16573D02*
D03*
X48344D02*
D03*
X39880Y22006D02*
D03*
X37680D02*
D03*
X39880Y23506D02*
D03*
X37680D02*
D03*
X4707Y39234D02*
D03*
X6907D02*
D03*
X4707Y37734D02*
D03*
X6907D02*
D03*
D111*
X46063Y47795D02*
D03*
Y46890D02*
D03*
X6329Y29845D02*
D03*
Y30750D02*
D03*
X3213Y27622D02*
D03*
Y26717D02*
D03*
D112*
X48917Y46496D02*
D03*
Y47598D02*
D03*
D113*
X47638Y50295D02*
D03*
X48228D02*
D03*
D114*
X47421Y49203D02*
D03*
X47677D02*
D03*
X47933D02*
D03*
X48189D02*
D03*
X48445D02*
D03*
D115*
X17579Y40177D02*
D03*
X16673D02*
D03*
Y41063D02*
D03*
X17579D02*
D03*
X28189Y40079D02*
D03*
X29095D02*
D03*
X21988Y40079D02*
D03*
X22894D02*
D03*
X18642Y40177D02*
D03*
X19547D02*
D03*
Y41063D02*
D03*
X18642D02*
D03*
X22894Y40866D02*
D03*
X21988D02*
D03*
X29095Y40965D02*
D03*
X28189D02*
D03*
X24941Y40079D02*
D03*
X25847D02*
D03*
Y40965D02*
D03*
X24941D02*
D03*
D116*
X18307Y45865D02*
D03*
X19291D02*
D03*
X17520D02*
D03*
X16535D02*
D03*
X25295D02*
D03*
X26280D02*
D03*
X24508D02*
D03*
X23524D02*
D03*
D117*
X3557Y29061D02*
D03*
X3931Y28234D02*
D03*
X3183D02*
D03*
D118*
X31481Y12823D02*
D03*
X31225D02*
D03*
X30969D02*
D03*
X30713D02*
D03*
X30457D02*
D03*
X30201D02*
D03*
X29945D02*
D03*
X29689D02*
D03*
X29433D02*
D03*
X29177D02*
D03*
X28921D02*
D03*
X28666D02*
D03*
X28410D02*
D03*
X28154D02*
D03*
Y15106D02*
D03*
X28410D02*
D03*
X28666D02*
D03*
X28921D02*
D03*
X29177D02*
D03*
X29433D02*
D03*
X29689D02*
D03*
X29945D02*
D03*
X30201D02*
D03*
X30457D02*
D03*
X30713D02*
D03*
X30969D02*
D03*
X31225D02*
D03*
X31481D02*
D03*
D119*
X29287Y18759D02*
D03*
X28184D02*
D03*
Y17715D02*
D03*
X29287D02*
D03*
Y16672D02*
D03*
X28184D02*
D03*
D120*
X4439Y34829D02*
D03*
Y34329D02*
D03*
Y33829D02*
D03*
Y33329D02*
D03*
X6743Y34829D02*
D03*
Y34329D02*
D03*
Y33829D02*
D03*
D121*
Y33329D02*
D03*
M02*
