M48
;Layer_Color=9474304
;FILE_FORMAT=2:4
INCH,LZ
;TYPE=PLATED
T1F00S00C0.0118
T2F00S00C0.0157
T3F00S00C0.0177
T4F00S00C0.0236
T5F00S00C0.0276
T6F00S00C0.0280
T7F00S00C0.0295
T8F00S00C0.0315
T9F00S00C0.0320
T10F00S00C0.0354
T11F00S00C0.0394
T12F00S00C0.0400
T13F00S00C0.0472
T15F00S00C0.0512
T16F00S00C0.0787
T17F00S00C0.0910
T18F00S00C0.1180
T19F00S00C0.1260
%
T01
X02971Y01228
X035443Y015118
X04324Y01679
X04534Y01636
X047451Y042431
X047461Y046594
X0481Y046654
X04749Y047441
X046093Y047362
X046004Y046004
X027569Y040994
X024488
X022382Y041339
X04748Y047963
T02
X001614Y000276
X012697Y000325
X029921Y000394
X051575
Y002362
X050984Y008858
X046752Y009449
X0462Y00979
X047308Y014369
X048917Y01437
X043617Y016049
X042898Y015768
X041235Y014902
X039695Y015453
X039872Y016181
X039542Y014252
X038829Y014055
X038284Y013978
X037953Y012333
Y01189
X037548Y011399
X036988Y012129
X036528Y011849
X036102Y014724
X035261Y014272
X034408Y015109
X034588Y015899
X034008Y016226
X036696Y015846
X037798Y015929
X03935Y012441
X033622Y01252
X033563Y013091
X031339Y013386
X031043Y013848
X03122Y014528
X031481Y015491
X031297Y012367
X031201Y011417
X03002Y011024
X029528Y011713
X036712Y002004
X028661Y000896
X028248Y005709
X027165Y009055
X028162Y010579
X027837Y012684
X028465Y013425
X029291
X02933Y01421
X028543Y014488
X02628Y014272
X025886Y013976
X023661Y013937
X024646Y015276
X019252Y014764
X018661Y014921
X01811Y014173
X018078Y01611
X015502Y009252
X013868Y009006
X016772Y007618
X024675Y007589
X012795Y008957
X011614Y00873
X009528Y008415
X00935Y005817
X010069Y005207
X011309Y005394
X007106Y006211
X005374Y003307
X000364Y001476
X000413Y008445
X000394Y009843
X008425Y014449
X010787Y013917
Y015965
X010837Y018888
X010518Y019239
X010827Y019902
X009718Y020519
X009449Y019291
X007087Y018898
X010659Y021644
X01064Y029272
X010738Y030709
X009449
X006998Y03077
X007283Y03189
X004258Y031029
X003557Y029469
X003931Y028565
X002589Y029045
X001181Y027559
X017638Y031859
X02439Y019252
X025984Y019685
X028346
X028986Y019369
X028658Y0224
X025591Y017717
X024459Y016929
X029879Y019499
X031575Y020472
X032037Y020413
X033108Y020473
X03276Y01809
X03435Y018209
X036978Y018419
X037653Y017639
X04Y020694
X035433Y023031
X034646Y023819
X035995Y025211
X036298Y026476
X035335Y026378
X034252Y027106
X032874Y026772
X033386Y025984
X03374Y028406
X033648Y028979
X032815Y029902
X03189Y029281
X030797Y028563
X03563Y028839
X035226Y029872
X037185Y029882
X038976Y029921
Y029528
X03937
X039764
X040157
X040551
X040945
X041339
X041732
X042126
X04252
X042913
X043307
X043701
X044094
X044488
X044882
X040157Y02874
X038976Y030315
Y030709
Y031102
Y031496
Y03189
X037008Y027953
X03185Y023923
X029754Y023448
X03102Y02112
X045276Y029528
X045669
X046063
X046457
X04685
X047244
X047638
X048032
X048425
X048819
X049213
X051181
Y029921
Y030315
Y030709
Y031102
Y031496
Y03189
Y032283
Y032677
Y033071
Y033465
Y033858
Y034252
Y034646
Y035039
Y035433
Y035827
Y03622
Y036614
Y037008
Y037402
X050787
X050394
X05
X049606
X049213
X048819
X048425
X048032
X047638
X047244
X04685
X046457
X046063
X045669
X045276
X04625Y042854
X048839Y041555
X048917Y046961
X051575Y038189
X044882Y037402
X044488
X044094
X043701
X043307
X042913
X04252
X042126
X041732
X041339
X040945
X040551
X040157
X039764
X03937
X038976
Y037008
Y036614
Y03622
Y035827
Y035433
Y035039
Y034646
Y034252
Y033858
Y033465
Y033071
Y032677
Y032283
X035669Y035935
Y03748
X0369Y040138
X031181Y040197
X032087Y043701
X039764Y044882
X044958Y040759
X027913Y039006
X024705Y039035
X025039Y036978
X024311Y036939
Y036024
X021427Y035994
X021457Y036988
X021417Y038996
X018189Y038986
X018504Y037037
X018563Y036024
X016457Y033583
X015868Y038589
X015994Y043081
X015128Y043071
X016831Y043012
X017458Y046605
X018818Y046453
X025238Y046605
X026378Y042835
X027343Y043327
X028445Y044518
X02311Y043041
X021909Y042913
X011448Y044299
X007884Y043858
X004892Y045748
X005807Y038484
X00561Y035531
X004724Y03622
X005478Y032739
X006138Y033059
X006663Y032844
X007444Y032638
X010709Y032333
X010689Y035463
X010659Y038022
X013091Y03622
X012106Y034252
X001575Y037402
X050787Y050787
T03
X030157Y014134
X038819Y016218
X038898Y010551
X03937Y009055
X040256Y009646
X040846Y009941
X04124Y010335
X042717Y003051
X02685Y004764
X022913Y004449
X018386Y008504
X00374Y026732
X003701Y031362
X005851Y030022
X021339Y030787
X024685
X036457Y023465
X038228Y021417
X036496Y033307
X029764Y041575
X027598Y041496
X026417Y04146
X024508Y046585
X023543Y046811
X022835Y032638
X021417Y033228
X025709Y032677
X010315Y034606
X005039Y032283
X003548Y044404
T04
X046516Y050256
X04935
T05
X046634Y049154
X047165Y049508
X048701
X049232Y049154
T06
X034646Y008858
X037323Y008543
X036772Y007717
X036339Y013386
X038307Y015197
X028465Y011535
X00126Y030433
X033957Y019587
X037638Y020984
X036319Y039173
X030709Y039469
X014646Y044646
X000492Y045669
X016634Y050591
X051693Y049331
T07
X049508Y011122
X049213Y011713
X049508Y012303
X050098Y012598
X050689Y012303
X050984Y011713
X050689Y011122
X050098Y010827
X025591Y010039
X025Y010335
X024409Y010039
X024114Y009449
X024409Y008858
X025Y008563
X025591Y008858
X025886Y009449
X003445Y02065
X002854Y020354
X002264Y02065
X001969Y02124
X002264Y021831
X002854Y022126
X003445Y021831
X00374Y02124
X048819Y02124
X049114Y02065
X049705Y020354
X050295Y02065
X050591Y02124
X050295Y021831
X049705Y022126
X049114Y021831
X040354Y041929
X04065Y04252
X040354Y04311
X039764Y043406
X039173Y04311
X038878Y04252
X039173Y041929
X039764Y041634
X013386Y046949
X013681Y047539
X011909
X012205Y046949
X012795Y046654
X003445Y03687
X002854Y037165
X002264Y03687
X001969Y03628
X002264Y035689
X002854Y035394
X003445Y035689
X00374Y03628
X012205Y04813
X012795Y048425
X013386Y04813
T08
X045325Y000886
X048031
X05
X043356
X04065
X038681
X032299Y003407
X031299
X030299
X042136Y038465
X028091Y039587
X005333Y041269
X004333
X003333
X002333
Y042269
X003333
X004333
X005333
T09
X048516Y004331
X049516
Y007087
X048516
X04489Y004331
X04389
X040165Y005413
X039165
X036248Y006378
X035248
X031799Y006102
X030799
X034744Y000875
X035728
X036712
X026878Y006102
X025878
X02176
X02076
X016732
X015732
X044722Y022835
X045472Y023335
Y022335
X045866Y020185
Y019185
X046616Y019685
X002862Y033071
X001862
X002362Y033821
T10
X047913Y010504
Y011504
Y012504
Y013504
X035827Y015945
X03378Y006969
Y005968
X034843Y004402
Y003402
Y002402
X035827Y016945
Y017945
Y018945
Y019945
Y020945
X039827Y018386
X040827
X03033Y0187
Y0177
Y0167
X03068Y025727
X03168
X02968
X047736Y023327
Y022327
Y021327
X047165Y039547
X049134
X049575Y044528
X048575
X047575
X046575
X044291Y043858
X042323
X042362Y039587
X044331
X026248Y044016
X025248
X024248
X023248
X019358
X018358
X017358
X016358
X002535Y039567
X001535
T11
X040936Y031499
X043936
X047936
X048936
X034843Y041437
Y042437
Y043437
Y045437
X032843
Y043437
Y042437
Y041437
X028937Y039059
Y037059
Y036059
Y035059
X026937
Y036059
Y037059
X025689Y037059
Y036059
Y035059
X023689
Y036059
Y037059
X022472Y037028
Y036028
Y035028
X020472
Y036028
Y037028
X019193Y037059
Y036059
Y035059
X017193
Y036059
Y037059
Y039059
X019193
X020472Y039028
X022472
X023689Y039059
X025689
X026937Y039059
T12
X033071Y008563
X043713Y010693
X044713
Y011693
X043713
Y012693
X044713
X04439Y025181
Y026181
Y027181
X047441
Y026181
Y025181
X013594Y041538
X012594
X011594
X010594
X009594
X008594
T13
X014055Y000433
X017992
X019154
X023091
X024252
X028189
X045719Y00187
X047638
X050394
X042963
X041043
X038287
X028189Y001417
X02622Y003386
X024252Y001417
X023091
X021122Y003386
X019154Y001417
X017992
X016024Y003386
X014055Y001417
X047992Y033602
Y035492
X029035Y049803
Y050787
X032972
Y049803
X035335
Y050787
X039272
Y049803
X037303Y047835
X031004
T15
X014055Y003386
X015039
X017008
X017992
X019154
X020138
X022106
X023091
X024252
X025236
X027205
X028189
X02622Y001417
X021122
X016024
X008071
X006102
X004134
X004134Y005354
X006102
X008071
X007579Y027598
X013091
X029035Y047835
X03002
X031988
X032972
X035335
X036319
X038287
X039272
X037303Y049803
X031004
T16
X029799Y001907
X032799
T17
X015328Y047524
X020498
X022317
X027487
T18
X041925Y048248
X043396Y049879
T19
X050098Y011713
X025Y009449
X002854Y02124
X049705Y02124
X039764Y04252
X043406Y046997
X012795Y047539
X002854Y03628
M30
